<?xml version="1.0" encoding="UTF-8"?>
<svg id="Capa_1" data-name="Capa 1" xmlns="http://www.w3.org/2000/svg" viewBox="0 0 16 16">
  <defs>
    <style>
      .cls-1 {
        fill: #ee7653;
      }
    </style>
  </defs>
  <path class="cls-1" d="M7.986,1.554c-.374,0-.679-.304-.679-.679s.304-.679.679-.679.679.304.679.679-.304.679-.679.679ZM7.986.607c-.148,0-.268.12-.268.268s.12.268.268.268.268-.12.268-.268-.12-.268-.268-.268Z"/>
  <path class="cls-1" d="M6.041,6.587c-1.23,0-2.231-1.001-2.231-2.231v-.325c0-.113.092-.205.205-.205h.325c1.23,0,2.231,1.001,2.231,2.231,0,.292-.238.53-.53.53ZM4.22,4.236v.12c0,1.004.817,1.821,1.821,1.821.066,0,.12-.054.12-.12,0-1.004-.817-1.821-1.821-1.821h-.12Z"/>
  <path class="cls-1" d="M9.931,6.587c-.292,0-.53-.238-.53-.53,0-1.23,1.001-2.231,2.231-2.231h.325c.113,0,.205.092.205.205v.325c0,1.23-1.001,2.231-2.231,2.231ZM11.631,4.236c-1.004,0-1.821.817-1.821,1.821,0,.066.054.12.12.12,1.004,0,1.821-.817,1.821-1.821v-.12h-.12Z"/>
  <path class="cls-1" d="M4.34,12.178h-.325c-.113,0-.205-.092-.205-.205v-.325c0-1.23,1.001-2.231,2.231-2.231.292,0,.53.238.53.53,0,1.23-1.001,2.231-2.231,2.231ZM4.22,11.768h.12c1.004,0,1.821-.817,1.821-1.821,0-.066-.054-.12-.12-.12-1.004,0-1.821.817-1.821,1.821v.12Z"/>
  <path class="cls-1" d="M9.971,14.294c-.877,0-1.635-.518-1.985-1.264-.107.228-.254.439-.437.622-.414.414-.964.642-1.548.642-1.183,0-2.15-.943-2.189-2.117-.558-.018-1.079-.244-1.476-.64-.414-.414-.642-.964-.642-1.549,0-.877.518-1.635,1.264-1.985-.228-.107-.439-.254-.622-.437-.414-.414-.642-.964-.642-1.548,0-1.183.943-2.151,2.117-2.189.039-1.174,1.006-2.117,2.189-2.117.585,0,1.135.228,1.548.642.184.184.331.394.437.622.35-.746,1.108-1.264,1.985-1.264.585,0,1.135.228,1.549.642.396.396.622.918.64,1.476,1.174.039,2.117,1.006,2.117,2.189,0,.585-.228,1.135-.642,1.548-.184.184-.394.331-.622.437.746.35,1.264,1.108,1.264,1.985,0,.585-.228,1.135-.642,1.549-.396.396-.918.622-1.476.64-.018.558-.244,1.079-.64,1.476-.414.414-.964.642-1.549.642ZM8.191,12.103c0,.982.799,1.78,1.78,1.78.476,0,.923-.185,1.259-.521.319-.319.502-.737.52-1.184h-.119c-1.23,0-2.231-1.001-2.231-2.231,0-.292.238-.53.53-.53,1.23,0,2.231,1.001,2.231,2.231v.119c.448-.018.866-.201,1.184-.52.336-.337.522-.784.522-1.259,0-.982-.799-1.78-1.78-1.78-.113,0-.205-.092-.205-.205s.092-.205.205-.205c.476,0,.923-.185,1.259-.521.336-.336.522-.783.522-1.258,0-.957-.759-1.74-1.706-1.779v.119c0,1.23-1.001,2.231-2.231,2.231-.292,0-.53-.238-.53-.53,0-1.23,1.001-2.231,2.231-2.231h.119c-.018-.448-.201-.866-.52-1.184-.336-.336-.783-.521-1.259-.521-.982,0-1.78.799-1.78,1.78,0,.113-.092.205-.205.205s-.205-.092-.205-.205c0-.476-.185-.923-.521-1.259s-.783-.521-1.258-.521c-.957,0-1.74.759-1.779,1.706h.119c1.23,0,2.231,1.001,2.231,2.231,0,.292-.238.53-.53.53-1.23,0-2.231-1.001-2.231-2.231v-.119c-.947.039-1.706.822-1.706,1.779,0,.475.185.922.521,1.258.336.336.783.521,1.259.521.113,0,.205.092.205.205s-.092.205-.205.205c-.982,0-1.78.799-1.78,1.78,0,.475.185.922.522,1.259.319.319.737.501,1.184.52v-.119c0-1.23,1.001-2.231,2.231-2.231.292,0,.53.238.53.53,0,1.23-1.001,2.231-2.231,2.231h-.119c.039.947.822,1.706,1.779,1.706.475,0,.922-.185,1.258-.521s.521-.783.521-1.259c0-.113.092-.205.205-.205s.205.092.205.205ZM9.931,9.827c-.066,0-.12.054-.12.12,0,1.004.817,1.821,1.821,1.821h.12v-.12c0-1.004-.817-1.821-1.821-1.821ZM4.22,11.768h.12c1.004,0,1.821-.817,1.821-1.821,0-.066-.054-.12-.12-.12-1.004,0-1.821.817-1.821,1.821v.12ZM11.631,4.236c-1.004,0-1.821.817-1.821,1.821,0,.066.054.12.12.12,1.004,0,1.821-.817,1.821-1.821v-.12h-.12ZM4.22,4.236v.12c0,1.004.817,1.821,1.821,1.821.066,0,.12-.054.12-.12,0-1.004-.817-1.821-1.821-1.821h-.12Z"/>
  <path class="cls-1" d="M11.957,12.178h-.325c-1.23,0-2.231-1.001-2.231-2.231,0-.292.238-.53.53-.53,1.23,0,2.231,1.001,2.231,2.231v.325c0,.113-.092.205-.205.205ZM9.931,9.827c-.066,0-.12.054-.12.12,0,1.004.817,1.821,1.821,1.821h.12v-.12c0-1.004-.817-1.821-1.821-1.821Z"/>
  <path class="cls-1" d="M9.931,6.587c-.292,0-.53-.238-.53-.53,0-1.23,1.001-2.231,2.231-2.231h.325c.113,0,.205.092.205.205v.325c0,1.23-1.001,2.231-2.231,2.231ZM11.631,4.236c-1.004,0-1.821.817-1.821,1.821,0,.066.054.12.12.12,1.004,0,1.821-.817,1.821-1.821v-.12h-.12Z"/>
  <path class="cls-1" d="M11.957,12.178h-.325c-1.23,0-2.231-1.001-2.231-2.231,0-.292.238-.53.53-.53,1.23,0,2.231,1.001,2.231,2.231v.325c0,.113-.092.205-.205.205ZM9.931,9.827c-.066,0-.12.054-.12.12,0,1.004.817,1.821,1.821,1.821h.12v-.12c0-1.004-.817-1.821-1.821-1.821Z"/>
  <path class="cls-1" d="M6.041,6.587c-1.23,0-2.231-1.001-2.231-2.231v-.325c0-.113.092-.205.205-.205h.325c1.23,0,2.231,1.001,2.231,2.231,0,.292-.238.53-.53.53ZM4.22,4.236v.12c0,1.004.817,1.821,1.821,1.821.066,0,.12-.054.12-.12,0-1.004-.817-1.821-1.821-1.821h-.12Z"/>
  <path class="cls-1" d="M4.34,12.178h-.325c-.113,0-.205-.092-.205-.205v-.325c0-1.23,1.001-2.231,2.231-2.231.292,0,.53.238.53.53,0,1.23-1.001,2.231-2.231,2.231ZM4.22,11.768h.12c1.004,0,1.821-.817,1.821-1.821,0-.066-.054-.12-.12-.12-1.004,0-1.821.817-1.821,1.821v.12Z"/>
  <path class="cls-1" d="M2.952,3.651c-.181,0-.352-.071-.48-.199-.128-.128-.199-.299-.199-.48s.071-.352.199-.48c.128-.128.299-.199.48-.199s.352.071.48.199c.128.128.199.299.199.48s-.071.352-.199.48-.299.199-.48.199ZM2.952,2.704c-.072,0-.139.028-.19.079-.105.105-.105.275,0,.38.105.105.275.105.38,0,.051-.051.079-.118.079-.19s-.028-.139-.079-.19t0,0c-.051-.051-.118-.079-.19-.079Z"/>
  <path class="cls-1" d="M.875,8.693c-.374,0-.679-.304-.679-.678s.304-.679.679-.679.679.304.679.679-.304.678-.679.678ZM.875,7.746c-.148,0-.268.12-.268.268s.12.268.268.268.268-.12.268-.268-.12-.268-.268-.268Z"/>
  <path class="cls-1" d="M2.972,13.726c-.174,0-.347-.066-.48-.198-.264-.264-.264-.695,0-.959t0,0c.264-.264.695-.264.96,0,.264.265.264.695,0,.96-.132.132-.306.198-.48.198ZM2.782,12.858c-.105.105-.105.275,0,.379.105.105.275.104.38,0,.105-.105.105-.275,0-.38s-.275-.105-.38,0h0Z"/>
  <path class="cls-1" d="M8.014,15.803c-.374,0-.679-.304-.679-.679s.304-.679.679-.679.679.304.679.679-.304.679-.679.679ZM8.014,14.856c-.148,0-.268.12-.268.268s.12.268.268.268.268-.12.268-.268-.12-.268-.268-.268Z"/>
  <path class="cls-1" d="M13.048,13.706c-.174,0-.347-.066-.48-.198-.265-.265-.265-.695,0-.959.128-.128.299-.199.48-.199s.352.071.48.199.199.299.199.48-.071.352-.199.48c-.132.132-.306.198-.48.198ZM13.048,12.759c-.072,0-.139.028-.19.079-.105.105-.105.275,0,.38.105.105.275.105.38,0,.051-.051.079-.118.079-.19s-.028-.139-.079-.19c-.051-.051-.118-.079-.19-.079Z"/>
  <path class="cls-1" d="M15.125,8.664c-.374,0-.678-.304-.678-.679s.304-.679.678-.679.679.304.679.679-.304.679-.679.679ZM15.125,7.717c-.148,0-.268.12-.268.268s.12.268.268.268.268-.12.268-.268-.12-.268-.268-.268Z"/>
  <path class="cls-1" d="M13.028,3.631c-.181,0-.352-.071-.48-.199s-.199-.299-.199-.48.071-.352.199-.48c.264-.265.695-.264.959,0,.264.265.264.695,0,.96-.128.128-.299.199-.48.199ZM13.028,2.684c-.069,0-.137.026-.19.078-.051.051-.079.118-.079.19s.028.139.079.19c.101.101.278.102.38,0,.105-.105.105-.275,0-.38-.052-.052-.121-.078-.19-.078Z"/>
  <path class="cls-1" d="M8,9.55c-.855,0-1.55-.695-1.55-1.55s.695-1.55,1.55-1.55,1.55.695,1.55,1.55-.695,1.55-1.55,1.55ZM8,6.86c-.628,0-1.14.511-1.14,1.14s.511,1.14,1.14,1.14,1.14-.511,1.14-1.14-.511-1.14-1.14-1.14Z"/>
</svg>