<?xml version="1.0" encoding="UTF-8"?>
<svg id="Capa_1" data-name="Capa 1" xmlns="http://www.w3.org/2000/svg" viewBox="0 0 32 32">
  <defs>
    <style>
      .cls-1 {
        fill: #ee7653;
      }
    </style>
  </defs>
  <path class="cls-1" d="M15.973,3.51c-.725,0-1.315-.59-1.315-1.315s.59-1.315,1.315-1.315,1.315.59,1.315,1.315-.59,1.315-1.315,1.315ZM15.973,1.675c-.287,0-.52.233-.52.52s.233.52.52.52.52-.233.52-.52-.233-.52-.52-.52Z"/>
  <path class="cls-1" d="M12.204,13.263c-2.384,0-4.323-1.939-4.323-4.323v-.63c0-.219.178-.397.397-.397h.63c2.384,0,4.323,1.939,4.323,4.323,0,.567-.461,1.028-1.028,1.028ZM8.676,8.707v.233c0,1.945,1.583,3.528,3.528,3.528.128,0,.233-.104.233-.233,0-1.945-1.583-3.528-3.528-3.528h-.233Z"/>
  <path class="cls-1" d="M19.741,13.263c-.567,0-1.028-.461-1.028-1.028,0-2.384,1.939-4.323,4.323-4.323h.63c.219,0,.397.178.397.397v.63c0,2.384-1.939,4.323-4.323,4.323ZM23.036,8.707c-1.945,0-3.528,1.583-3.528,3.528,0,.128.104.233.233.233,1.945,0,3.528-1.583,3.528-3.528v-.233h-.233Z"/>
  <path class="cls-1" d="M8.909,24.095h-.63c-.219,0-.397-.178-.397-.397v-.63c0-2.384,1.939-4.323,4.323-4.323.567,0,1.028.461,1.028,1.028,0,2.384-1.939,4.323-4.323,4.323ZM8.676,23.3h.233c1.945,0,3.528-1.583,3.528-3.528,0-.128-.105-.233-.233-.233-1.945,0-3.528,1.583-3.528,3.528v.233Z"/>
  <path class="cls-1" d="M19.819,28.195c-1.699,0-3.168-1.003-3.846-2.449-.207.443-.491.85-.847,1.206-.802.802-1.867,1.243-3,1.243-2.293,0-4.167-1.827-4.242-4.102-1.08-.035-2.091-.473-2.859-1.241-.802-.803-1.243-1.869-1.243-3.002,0-1.699,1.003-3.168,2.449-3.846-.442-.207-.85-.491-1.206-.847-.802-.802-1.243-1.867-1.243-3,0-2.293,1.828-4.167,4.102-4.242.075-2.275,1.949-4.102,4.242-4.102,1.133,0,2.199.441,3,1.243.356.356.64.763.847,1.206.678-1.445,2.147-2.449,3.846-2.449,1.134,0,2.2.441,3.001,1.243.768.768,1.205,1.779,1.241,2.859,2.275.075,4.102,1.949,4.102,4.242,0,1.133-.442,2.199-1.243,3-.356.356-.763.64-1.206.847,1.445.678,2.449,2.147,2.449,3.846,0,1.133-.441,2.199-1.243,3.001-.768.768-1.779,1.206-2.859,1.241-.035,1.081-.473,2.091-1.241,2.859-.802.802-1.867,1.243-3.001,1.243ZM16.369,23.95c0,1.902,1.548,3.45,3.45,3.45.922,0,1.788-.359,2.439-1.01.617-.617.972-1.428,1.007-2.295h-.23c-2.384,0-4.323-1.939-4.323-4.323,0-.567.461-1.028,1.028-1.028,2.384,0,4.323,1.939,4.323,4.323v.23c.867-.036,1.678-.39,2.295-1.007.652-.653,1.01-1.519,1.01-2.44,0-1.902-1.548-3.45-3.45-3.45-.219,0-.397-.178-.397-.397s.178-.397.397-.397c.922,0,1.788-.359,2.439-1.01.652-.652,1.01-1.518,1.01-2.438,0-1.854-1.47-3.371-3.305-3.447v.23c0,2.384-1.939,4.323-4.323,4.323-.567,0-1.028-.461-1.028-1.028,0-2.384,1.939-4.323,4.323-4.323h.23c-.036-.867-.39-1.678-1.007-2.295-.652-.652-1.518-1.01-2.439-1.01-1.902,0-3.45,1.548-3.45,3.45,0,.219-.178.397-.397.397s-.397-.178-.397-.397c0-.922-.359-1.788-1.01-2.44-.652-.652-1.517-1.01-2.438-1.01-1.854,0-3.371,1.47-3.447,3.305h.23c2.384,0,4.323,1.939,4.323,4.323,0,.567-.461,1.028-1.028,1.028-2.384,0-4.323-1.939-4.323-4.323v-.23c-1.835.076-3.305,1.593-3.305,3.447,0,.921.359,1.787,1.01,2.438.652.652,1.518,1.01,2.44,1.01.219,0,.397.178.397.397s-.178.397-.397.397c-1.902,0-3.45,1.548-3.45,3.45,0,.921.359,1.787,1.01,2.44.617.617,1.428.972,2.295,1.007v-.23c0-2.384,1.939-4.323,4.323-4.323.567,0,1.028.461,1.028,1.028,0,2.384-1.939,4.323-4.323,4.323h-.23c.076,1.835,1.593,3.305,3.447,3.305.921,0,1.787-.359,2.438-1.01s1.01-1.518,1.01-2.439c0-.219.178-.397.397-.397s.397.178.397.397ZM19.741,19.539c-.128,0-.233.104-.233.233,0,1.945,1.583,3.528,3.528,3.528h.233v-.233c0-1.945-1.583-3.528-3.528-3.528ZM8.676,23.3h.233c1.945,0,3.528-1.583,3.528-3.528,0-.128-.105-.233-.233-.233-1.945,0-3.528,1.583-3.528,3.528v.233ZM23.036,8.707c-1.945,0-3.528,1.583-3.528,3.528,0,.128.104.233.233.233,1.945,0,3.528-1.583,3.528-3.528v-.233h-.233ZM8.676,8.707v.233c0,1.945,1.583,3.528,3.528,3.528.128,0,.233-.104.233-.233,0-1.945-1.583-3.528-3.528-3.528h-.233Z"/>
  <path class="cls-1" d="M23.666,24.095h-.63c-2.384,0-4.323-1.939-4.323-4.323,0-.567.461-1.028,1.028-1.028,2.384,0,4.323,1.939,4.323,4.323v.63c0,.219-.178.397-.397.397ZM19.741,19.539c-.128,0-.233.104-.233.233,0,1.945,1.583,3.528,3.528,3.528h.233v-.233c0-1.945-1.583-3.528-3.528-3.528Z"/>
  <path class="cls-1" d="M19.741,13.263c-.567,0-1.028-.461-1.028-1.028,0-2.384,1.939-4.323,4.323-4.323h.63c.219,0,.397.178.397.397v.63c0,2.384-1.939,4.323-4.323,4.323ZM23.036,8.707c-1.945,0-3.528,1.583-3.528,3.528,0,.128.104.233.233.233,1.945,0,3.528-1.583,3.528-3.528v-.233h-.233Z"/>
  <path class="cls-1" d="M23.666,24.095h-.63c-2.384,0-4.323-1.939-4.323-4.323,0-.567.461-1.028,1.028-1.028,2.384,0,4.323,1.939,4.323,4.323v.63c0,.219-.178.397-.397.397ZM19.741,19.539c-.128,0-.233.104-.233.233,0,1.945,1.583,3.528,3.528,3.528h.233v-.233c0-1.945-1.583-3.528-3.528-3.528Z"/>
  <path class="cls-1" d="M12.204,13.263c-2.384,0-4.323-1.939-4.323-4.323v-.63c0-.219.178-.397.397-.397h.63c2.384,0,4.323,1.939,4.323,4.323,0,.567-.461,1.028-1.028,1.028ZM8.676,8.707v.233c0,1.945,1.583,3.528,3.528,3.528.128,0,.233-.104.233-.233,0-1.945-1.583-3.528-3.528-3.528h-.233Z"/>
  <path class="cls-1" d="M8.909,24.095h-.63c-.219,0-.397-.178-.397-.397v-.63c0-2.384,1.939-4.323,4.323-4.323.567,0,1.028.461,1.028,1.028,0,2.384-1.939,4.323-4.323,4.323ZM8.676,23.3h.233c1.945,0,3.528-1.583,3.528-3.528,0-.128-.105-.233-.233-.233-1.945,0-3.528,1.583-3.528,3.528v.233Z"/>
  <path class="cls-1" d="M6.219,7.573c-.351,0-.681-.137-.93-.385-.248-.248-.385-.578-.385-.93s.137-.681.385-.93c.248-.248.578-.385.93-.385s.681.137.93.385c.248.248.385.578.385.93s-.137.681-.385.93-.578.385-.93.385ZM6.219,5.738c-.139,0-.269.054-.367.152-.203.203-.203.533,0,.735.203.203.532.203.735,0,.098-.098.152-.229.152-.368s-.054-.269-.152-.367t0,0c-.098-.098-.229-.152-.367-.152Z"/>
  <path class="cls-1" d="M2.195,17.342c-.725,0-1.315-.59-1.315-1.315s.59-1.315,1.315-1.315,1.315.59,1.315,1.315-.59,1.315-1.315,1.315ZM2.195,15.508c-.287,0-.52.233-.52.52s.233.52.52.52.52-.233.52-.52-.233-.52-.52-.52Z"/>
  <path class="cls-1" d="M6.258,27.095c-.337,0-.673-.128-.93-.385-.512-.512-.512-1.346,0-1.859t0,0c.512-.512,1.346-.512,1.859,0,.512.513.512,1.347,0,1.859-.256.256-.593.385-.93.385ZM5.89,25.413c-.203.203-.203.533,0,.735.203.203.533.202.736,0,.203-.203.203-.533,0-.735s-.533-.203-.735,0h0Z"/>
  <path class="cls-1" d="M16.027,31.12c-.725,0-1.315-.59-1.315-1.315s.59-1.315,1.315-1.315,1.315.59,1.315,1.315-.59,1.315-1.315,1.315ZM16.027,29.285c-.287,0-.52.233-.52.52s.233.52.52.52.52-.233.52-.52-.233-.52-.52-.52Z"/>
  <path class="cls-1" d="M25.781,27.056c-.337,0-.673-.128-.93-.385-.513-.513-.513-1.347,0-1.859.248-.248.578-.385.93-.385s.681.137.93.385.385.578.385.93-.137.681-.385.93c-.256.256-.593.384-.93.384ZM25.781,25.222c-.139,0-.269.054-.367.152-.203.203-.203.533,0,.735.203.203.532.203.735,0,.098-.098.152-.229.152-.368s-.054-.269-.152-.367c-.098-.098-.229-.153-.368-.153Z"/>
  <path class="cls-1" d="M29.805,17.287c-.725,0-1.315-.59-1.315-1.315s.59-1.315,1.315-1.315,1.315.59,1.315,1.315-.59,1.315-1.315,1.315ZM29.805,15.452c-.287,0-.52.233-.52.52s.233.52.52.52.52-.233.52-.52-.233-.52-.52-.52Z"/>
  <path class="cls-1" d="M25.742,7.534c-.351,0-.681-.137-.93-.385s-.385-.578-.385-.93.137-.681.385-.93c.512-.513,1.347-.512,1.859,0,.512.513.512,1.347,0,1.859-.248.248-.579.385-.93.385ZM25.742,5.699c-.133,0-.266.051-.368.152-.098.098-.152.229-.152.368s.054.269.152.367c.196.197.539.197.735,0,.203-.203.203-.533,0-.735-.101-.101-.234-.152-.367-.152Z"/>
  <path class="cls-1" d="M16,19.003c-1.656,0-3.003-1.347-3.003-3.003s1.347-3.003,3.003-3.003,3.003,1.347,3.003,3.003-1.347,3.003-3.003,3.003ZM16,13.792c-1.218,0-2.208.991-2.208,2.208s.991,2.208,2.208,2.208,2.208-.99,2.208-2.208-.99-2.208-2.208-2.208Z"/>
</svg>