<?xml version="1.0" encoding="UTF-8"?>
<svg id="Capa_2" data-name="Capa 2" xmlns="http://www.w3.org/2000/svg" viewBox="0 0 48.761 48.009">
  <defs>
    <style>
      .cls-1 {
        fill: #ee7653;
      }

      .cls-2 {
        fill: #fbc57d;
      }
    </style>
  </defs>
  <g id="Capa_1-2" data-name="Capa 1">
    <g>
      <path class="cls-1" d="M42.97,31.18c.895,1.621,1.401,3.489,1.401,5.473,0,6.271-5.078,11.355-11.349,11.355-3.567,0-6.751-1.647-8.832-4.222-2.082,2.575-5.266,4.222-8.833,4.222-6.271,0-11.355-5.084-11.355-11.355,0-2.056.545-3.982,1.505-5.642-3.301-1.984-5.506-5.597-5.506-9.728,0-6.271,5.084-11.355,11.355-11.355.428,0,.856.026,1.271.071C13.294,4.364,18.087,0,23.897,0c5.862,0,10.687,4.442,11.29,10.149.72-.149,1.459-.221,2.218-.221,6.271,0,11.355,5.084,11.355,11.355,0,4.248-2.335,7.951-5.791,9.896Z"/>
      <path class="cls-2" d="M27.587,10.713l-2.85-4.6c-.24-.38-.87-.38-1.11,0l-2.85,4.6-.08.12v26.38c0,.47.38.84.84.84h5.29c.46,0,.84-.37.84-.84V10.833l-.08-.12ZM26.607,30.353h-1.89V11.783h1.89v18.57ZM24.177,7.193l2.03,3.25h-4.05l2.02-3.25ZM21.757,11.783h1.89v18.57h-1.89V11.783ZM21.757,31.413h4.85v1.24h-4.85v-1.24ZM26.607,36.993h-4.85v-3.27h4.85v3.27Z"/>
    </g>
  </g>
</svg>