<?xml version="1.0" encoding="UTF-8"?>
<svg id="Capa_2" data-name="Capa 2" xmlns="http://www.w3.org/2000/svg" viewBox="0 0 48.761 48.009">
  <defs>
    <style>
      .cls-1 {
        fill: none;
        stroke: #fbc57d;
        stroke-miterlimit: 10;
        stroke-width: 1.5px;
      }

      .cls-2 {
        fill: #ee7653;
      }
    </style>
  </defs>
  <g id="Capa_1-2" data-name="Capa 1">
    <g>
      <path class="cls-2" d="M42.97,31.18c.895,1.621,1.401,3.489,1.401,5.473,0,6.271-5.078,11.355-11.349,11.355-3.567,0-6.751-1.647-8.832-4.222-2.082,2.575-5.266,4.222-8.833,4.222-6.271,0-11.355-5.084-11.355-11.355,0-2.056.545-3.982,1.505-5.642-3.301-1.984-5.506-5.597-5.506-9.728,0-6.271,5.084-11.355,11.355-11.355.428,0,.856.026,1.271.071C13.294,4.364,18.087,0,23.897,0c5.862,0,10.687,4.442,11.29,10.149.72-.149,1.459-.221,2.218-.221,6.271,0,11.355,5.084,11.355,11.355,0,4.248-2.335,7.951-5.791,9.896Z"/>
      <path class="cls-1" d="M20.584,35.33l3.024-8.931c.069-.204-.098-.411-.313-.386l-4.832.572c-.249.029-.418-.246-.279-.454l9.2-13.776c.188-.281.624-.074.525.249l-2.773,9.013c-.062.203.104.403.315.378l4.833-.573c.251-.03.42.25.276.458l-9.457,13.709c-.193.28-.629.062-.52-.261Z"/>
    </g>
  </g>
</svg>