<?xml version="1.0" encoding="UTF-8"?>
<svg id="Capa_2" data-name="Capa 2" xmlns="http://www.w3.org/2000/svg" viewBox="0 0 48.761 48.009">
  <defs>
    <style>
      .cls-1 {
        fill: #ee7653;
      }

      .cls-2 {
        fill: #fbc57d;
      }
    </style>
  </defs>
  <g id="Capa_1-2" data-name="Capa 1">
    <g>
      <path class="cls-1" d="M42.97,31.18c.895,1.621,1.401,3.489,1.401,5.473,0,6.271-5.078,11.355-11.349,11.355-3.567,0-6.751-1.647-8.832-4.222-2.082,2.575-5.266,4.222-8.833,4.222-6.271,0-11.355-5.084-11.355-11.355,0-2.056.545-3.982,1.505-5.642-3.301-1.984-5.506-5.597-5.506-9.728,0-6.271,5.084-11.355,11.355-11.355.428,0,.856.026,1.271.071C13.294,4.364,18.087,0,23.897,0c5.862,0,10.687,4.442,11.29,10.149.72-.149,1.459-.221,2.218-.221,6.271,0,11.355,5.084,11.355,11.355,0,4.248-2.335,7.951-5.791,9.896Z"/>
      <g>
        <path class="cls-2" d="M24.028,11.779l-2.486,4.306c-.095.164.024.368.213.368h4.972c.189,0,.307-.205.213-.368l-2.486-4.306c-.095-.164-.331-.164-.425,0Z"/>
        <rect class="cls-2" x="23.72" y="14.344" width="1.041" height="22.018" rx=".246" ry=".246"/>
        <g>
          <path class="cls-2" d="M34.781,21.436l-4.306-2.486c-.164-.095-.368.024-.368.213v4.972c0,.189.205.307.368.213l4.306-2.486c.164-.095.164-.331,0-.425Z"/>
          <path class="cls-2" d="M24.519,26.773h-.549c-.138,0-.251-.113-.246-.251.052-1.432.558-2.623,1.505-3.542,1.846-1.792,4.799-1.98,5.687-1.994.14-.002.252.113.248.253l-.024.788.016-.52-.008.284c-.004.13-.108.235-.238.238-.789.019-3.413.198-4.959,1.701-.741.72-1.139,1.665-1.186,2.811-.005.13-.116.232-.247.232Z"/>
        </g>
        <g>
          <path class="cls-2" d="M13.701,21.436l4.306-2.486c.164-.095.368.024.368.213v4.972c0,.189-.205.307-.368.213l-4.306-2.486c-.164-.095-.164-.331,0-.425Z"/>
          <path class="cls-2" d="M24.511,26.773h-.549c-.131,0-.241-.101-.247-.232-.047-1.146-.445-2.091-1.186-2.811-1.546-1.504-4.169-1.682-4.959-1.701-.13-.003-.234-.108-.238-.238l-.016-.552c-.004-.14.108-.255.248-.253.888.015,3.841.203,5.687,1.994.947.919,1.453,2.11,1.505,3.542.005.138-.109.251-.246.251Z"/>
        </g>
      </g>
    </g>
  </g>
</svg>