<?xml version="1.0" encoding="UTF-8"?>
<svg id="Capa_2" data-name="Capa 2" xmlns="http://www.w3.org/2000/svg" viewBox="0 0 106.861 33.909">
  <defs>
    <style>
      .cls-1 {
        fill: #f9c180;
      }
    </style>
  </defs>
  <g id="Capa_1-2" data-name="Capa 1">
    <path class="cls-1" d="M3.756,10.013c8.278-6.21,20.575-6.907,29.093-.694,3.684,2.687,6.884,7.283,6.539,12.022-.332,4.553-4.793,8.202-9.344,7.536-4.578-.669-7.93-5.165-6.988-9.681.928-4.451,4.627-8.223,8.946-9.529,5.818-1.758,12.121-.183,17.537,2.173,5.808,2.527,11.103,6.075,16.848,8.733,6.292,2.912,12.986,4.533,19.95,4.193,6.817-.333,13.504-2.321,19.338-5.874,2.744-1.671.235-5.997-2.524-4.317-5.501,3.35-11.81,5.16-18.252,5.235-6.763.079-12.99-1.932-18.95-5.009-6.221-3.211-12.155-7.041-18.862-9.205-6.485-2.092-14.092-2.638-20.197.883-4.956,2.859-8.802,8.187-8.982,14.021-.195,6.303,4.631,12.067,10.807,13.198,6.369,1.166,12.739-2.611,14.953-8.658,2.151-5.876-.552-12.322-4.521-16.721C29.76-2.085,12.109-2.465,1.233,5.695c-1.078.809-1.634,2.16-.897,3.42.622,1.063,2.334,1.712,3.42.897h0Z"/>
  </g>
</svg>