<?xml version="1.0" encoding="UTF-8"?>
<svg id="Capa_2" data-name="Capa 2" xmlns="http://www.w3.org/2000/svg" viewBox="0 0 105.929 29.718">
  <defs>
    <style>
      .cls-1 {
        fill: #ee7653;
      }
    </style>
  </defs>
  <g id="Capa_1-2" data-name="Capa 1">
    <path class="cls-1" d="M103.516.085c-6.296-.19-12.806-.28-18.7,2.26-4.652,2.005-8.715,5.696-10.303,10.605-1.105,3.417-.847,7.629.364,10.983,1.298,3.596,4.311,6.843,8.476,5.46,1.949-.647,4.144-1.998,5.126-3.855.957-1.811.728-3.909-.326-5.626-2.055-3.347-6.199-5.596-9.856-6.715-5.907-1.807-11.964.417-17.634,2.022-5.704,1.615-11.556,2.684-17.466,3.158-13.58,1.088-27.248-.782-40.03-5.493-1.267-.467-2.739.522-3.075,1.746-.384,1.396.474,2.607,1.746,3.075,10.201,3.759,21.048,5.757,31.917,5.96,5.479.102,10.945-.291,16.365-1.086s10.618-2.213,15.87-3.709c2.513-.716,5.066-1.369,7.697-1.34,1.001.011,1.968.12,2.932.386.759.21,1.497.486,1.99.716,1.465.685,3.03,1.589,4.066,2.523.291.263.569.538.831.83.042.047.3.373.07.064.094.125.172.257.26.385.082.12.151.258.218.388-.228-.439-.034-.037.02.087.038.087.088.509.053.156-.045-.445.145.52-.015.112-.071-.182-.11.013.003-.056.226-.139-.11.189-.178.266.343-.387-.384.326-.207.182-.338.275-.747.462-1.124.673-.201.112-.393.236-.602.334-.255.12.204-.056-.203.068-.009.003-.707.132-.311.088.382-.042-.255-.012-.278-.014.555.063-.057-.029-.267-.106.681.25-.385-.341.119.063-.117-.094-.759-.794-.449-.393-.204-.263-.376-.556-.535-.848-.094-.172-.181-.346-.264-.524.045.097.153.402-.031-.075-.278-.72-.483-1.469-.639-2.223-.189-.913-.201-1.055-.254-1.976-.045-.772-.025-1.535.015-2.306.008-.16.027-.322.045-.482-.056.517.021-.138.044-.249.093-.447.198-.888.339-1.322.333-1.026.874-2.003,1.521-2.865,1.341-1.785,3.186-3.132,5.16-4.138,5.323-2.711,11.709-2.366,17.5-2.192,3.219.097,3.215-4.903,0-5h0Z"/>
  </g>
</svg>