<?xml version="1.0" encoding="UTF-8"?>
<svg id="Capa_2" data-name="Capa 2" xmlns="http://www.w3.org/2000/svg" viewBox="0 0 191.987 132.523">
  <defs>
    <style>
      .cls-1 {
        fill: #ee7653;
      }
    </style>
  </defs>
  <g id="Capa_1-2" data-name="Capa 1">
    <path class="cls-1" d="M.001,2.482c.466,15.572,1.041,31.648,7.432,46.121,5.179,11.727,14.806,22.304,27.32,26.132,6.359,1.945,13.199,1.782,19.433-.565,3.182-1.197,6.097-2.825,8.774-4.917,2.388-1.866,5.304-4.435,6.285-7.389,2.063-6.217-5.871-11.382-10.842-7.358-2.561,2.073-4.244,5.756-5.317,8.788-1.138,3.215-1.646,6.763-1.355,10.166,1.13,13.253,12.956,23.277,25.521,25.605,14.248,2.64,29.577-3.561,39.964-13.256,5.109-4.768,8.61-12.756,3.59-18.906-2.016-2.47-5.139-3.622-8.264-3.064-2.778.496-5.137,2.345-6.795,4.555-3.899,5.195-2.622,11.992,2.077,16.222,5.295,4.767,12.508,5.716,19.35,5.035,7.001-.697,13.838-2.346,20.901-1.294,5.846.871,11.433,2.979,16.481,6.035,9.995,6.052,17.892,15.844,20.963,27.185.752,2.776,1.195,5.593,1.321,8.466.144,3.297,5.288,3.315,5.143,0-.989-22.628-19.644-42.802-41.853-46.536-2.754-.463-5.545-.718-8.339-.668-3.633.065-7.235.667-10.823,1.188-5.998.87-12.44,1.507-17.836-1.819-1.903-1.173-3.62-2.893-4.329-5.049-.291-.884-.393-1.872-.297-2.498.194-1.274.594-2.139,1.331-3.19.382-.546,1.257-1.41,1.763-1.745.177-.117,1.035-.596.871-.525.249-.108.516-.19.778-.26.174-.047.35-.087.527-.12-.24.026-.202.025.116-.002.897-.04,1.312.028,2.139.6.953.659,1.627,1.762,1.927,2.937,1.428,5.593-4.549,10.312-8.468,13.116-5.339,3.82-11.304,6.766-17.731,8.204-11.021,2.466-23.323-.557-30.493-9.708-3.427-4.374-5.162-9.97-4.222-15.5.492-2.896,1.56-5.646,3.155-8.111.358-.553.723-1.127,1.173-1.612.429-.463.431-.429.738-.541.076-.028.499-.099.068-.048.05-.006.857.019.318-.049.713.09.65.082,1.234.5-.377-.27.58.692.319.319.018.026.402.733.205.271.095.223.169.484.201.724-.072-.531-.049.294-.052.337.034-.498-.199.327-.022.024-.296.507-.592.958-.971,1.412-1.836,2.199-4.022,4.044-6.483,5.506-4.811,2.857-10.525,4.277-16.113,3.618-11.117-1.311-20.297-9.612-25.86-18.87C7.947,40.287,6.219,26.377,5.538,13.034c-.18-3.515-.288-7.034-.393-10.552C5.046-.82-.098-.834.001,2.482H.001Z"/>
  </g>
</svg>