<?xml version="1.0" encoding="UTF-8"?>
<svg id="Capa_2" data-name="Capa 2" xmlns="http://www.w3.org/2000/svg" viewBox="0 0 27.267 26.846">
  <defs>
    <style>
      .cls-1 {
        fill: #ebcde3;
      }
    </style>
  </defs>
  <g id="Capa_1-2" data-name="Capa 1">
    <path class="cls-1" d="M24.028,17.436c.5.907.783,1.951.783,3.061,0,3.507-2.839,6.35-6.346,6.35-1.995,0-3.775-.921-4.939-2.361-1.164,1.44-2.945,2.361-4.939,2.361-3.507,0-6.35-2.843-6.35-6.35,0-1.15.305-2.227.841-3.155-1.846-1.11-3.079-3.13-3.079-5.44,0-3.507,2.843-6.35,6.35-6.35.239,0,.479.015.711.04.374-3.151,3.053-5.592,6.303-5.592,3.278,0,5.976,2.484,6.314,5.675.403-.083.816-.123,1.24-.123,3.507,0,6.35,2.843,6.35,6.35,0,2.375-1.305,4.446-3.238,5.534Z"/>
  </g>
</svg>