<?xml version="1.0" encoding="UTF-8"?>
<svg id="Capa_2" data-name="Capa 2" xmlns="http://www.w3.org/2000/svg" viewBox="0 0 77.383 75.705">
  <defs>
    <style>
      .cls-1 {
        fill: #fbc57d;
      }
    </style>
  </defs>
  <g id="Capa_1-2" data-name="Capa 1">
    <path class="cls-1" d="M57.662,35.533c9.586-7.783,15.029-16.875,12.176-20.453-2.837-3.557-12.814-.329-22.484,7.192-.108-12.348-3.823-22.272-8.399-22.272-4.55,0-8.247,9.813-8.395,22.062-9.721-7.614-19.796-10.897-22.65-7.319-2.837,3.557,2.53,12.566,12.015,20.319C7.91,37.916-.938,43.746.08,48.207c1.012,4.436,11.402,5.856,23.377,3.276-5.26,11.172-6.219,21.725-2.096,23.711,4.099,1.974,11.688-5.263,17.136-16.235,5.455,11.078,13.108,18.408,17.231,16.422,4.099-1.974,3.172-12.419-2.009-23.52,12.062,2.642,22.565,1.229,23.583-3.233,1.012-4.436-7.732-10.223-19.641-13.094Z"/>
  </g>
</svg>