<?xml version="1.0" encoding="UTF-8"?>
<svg id="Capa_1" data-name="Capa 1" xmlns="http://www.w3.org/2000/svg" viewBox="0 0 1000 468.128">
  <defs>
    <style>
      .cls-1 {
        fill: #2f3243;
      }

      .cls-2 {
        fill: none;
        stroke: #ee7653;
        stroke-linecap: round;
        stroke-linejoin: round;
        stroke-width: 4px;
      }
    </style>
  </defs>
  <g>
    <path class="cls-1" d="M106.827,228.017c-.182-.151-.273-.348-.273-.592.06-.242,14.868-37.9,44.425-112.975.182-.303.394-.455.637-.455s.469.077.683.228c.212.152.319.35.319.592-.061.243-9.468,24.247-28.221,72.009h55.895c.607,0,.91.273.91.819,0,.243-.076.455-.228.637-.152.183-.379.274-.683.274h-56.623l-15.385,39.145c-.243.364-.516.546-.819.546-.244,0-.455-.077-.637-.228ZM200.138,228.244l-49.978-126.72h18.844l49.887,126.72h-18.753Z"/>
    <path class="cls-1" d="M236.188,228.244v-91.763h17.478v91.763h-17.478ZM298.455,228.244v-62.086c0-5.098-.956-9.482-2.867-13.155-1.912-3.671-4.401-6.493-7.466-8.466-3.065-1.971-6.387-2.959-9.969-2.959-3.763,0-7.51,1.215-11.243,3.642-3.732,2.428-7.025,6.251-9.876,11.47-.182.305-.426.455-.729.455-.546-.06-.819-.364-.819-.91l.091-.364c3.399-6.432,8.041-11.289,13.929-14.566,5.886-3.277,11.925-4.916,18.116-4.916,4.916,0,9.527,1.063,13.838,3.187,4.308,2.125,7.797,5.37,10.469,9.74,2.67,4.37,4.005,9.893,4.005,16.568v62.359h-17.478Z"/>
    <path class="cls-1" d="M369.735,228.244c-6.859,0-12.851-1.305-17.979-3.914-5.13-2.609-9.408-6.084-12.836-10.424-3.429-4.338-5.994-9.254-7.693-14.748-1.7-5.492-2.548-11.09-2.548-16.796,0-5.765.848-11.379,2.548-16.841,1.699-5.462,4.264-10.362,7.693-14.702,3.427-4.338,7.706-7.813,12.836-10.424,5.128-2.609,11.12-3.915,17.979-3.915,4.188,0,8.041.881,11.561,2.64,3.519,1.761,6.646,4.097,9.377,7.01,2.732,2.913,5.037,6.16,6.918,9.741l.091.364c0,.546-.273.851-.819.91-.305,0-.578-.151-.819-.455-2.792-5.34-6.449-9.741-10.97-13.2-4.522-3.459-9.362-5.189-14.52-5.189-4.067,0-7.632,1.244-10.697,3.732-3.064,2.49-5.614,5.842-7.646,10.06-2.034,4.219-3.566,8.953-4.597,14.201-1.033,5.25-1.547,10.606-1.547,16.068,0,5.523.515,10.91,1.547,16.159,1.032,5.25,2.564,9.969,4.597,14.156,2.033,4.188,4.582,7.526,7.646,10.014,3.064,2.49,6.63,3.732,10.697,3.732,5.098,0,9.908-1.714,14.429-5.143,4.52-3.428,8.208-7.844,11.061-13.246.242-.303.515-.455.819-.455.546.061.819.364.819.91l-.091.364c-1.881,3.582-4.187,6.828-6.918,9.741-2.73,2.913-5.858,5.25-9.377,7.009-3.52,1.761-7.373,2.64-11.561,2.64ZM416.983,228.244h-17.478v-126.72h17.478v126.72Z"/>
    <path class="cls-1" d="M434.279,228.244v-91.763h17.478v91.763h-17.478ZM453.943,157.055c-.305-.242-.455-.515-.455-.819l.091-.364c3.459-6.432,8.132-11.289,14.019-14.566,5.887-3.277,11.895-4.916,18.026-4.916,4.793,0,9.316,1.002,13.564,3.004.303.183.455.425.455.729,0,.243-.077.455-.226.637-.152.182-.35.273-.593.273l-.455-.091c-4.005-1.942-8.254-2.913-12.744-2.913-5.949,0-11.714,1.609-17.296,4.825-5.585,3.218-9.985,7.829-13.201,13.837-.243.305-.516.455-.819.455l-.364-.091Z"/>
    <path class="cls-1" d="M516.575,221.781c-6.918-4.247-12.38-9.862-16.386-16.841-4.006-6.978-6.008-14.566-6.008-22.759,0-9.771,2.868-18.662,8.603-26.673,5.735-8.011,13.487-13.655,23.259-16.932l.273-.091c.303,0,.531.107.683.319.151.214.228.441.228.683,0,.305-.182.547-.546.729-5.159,2.185-9.181,6.19-12.062,12.016-2.883,5.826-4.324,12.594-4.324,20.301,0,4.005.424,8.133,1.274,12.38l54.53-14.656c-3.399-9.407-8.072-16.963-14.019-22.668-5.949-5.704-12.109-8.557-18.481-8.557-.546,0-1.078.032-1.593.091-.517.061-.987.091-1.411.091-.305,0-.532-.105-.683-.319-.153-.212-.228-.439-.228-.683,0-.364.211-.637.637-.819,3.277-.667,6.492-1.002,9.649-1.002,9.65,0,18.449,2.792,26.4,8.375,7.95,5.585,13.656,13.141,17.114,22.668l-71.553,19.117c.182.971.425,1.973.728,3.004,3.035,10.682,7.707,19.331,14.02,25.945,6.312,6.616,12.927,9.923,19.846,9.923.97,0,1.942-.06,2.912-.182,7.525-1.334,14.231-4.764,20.119-10.287,5.886-5.522,10.043-11.834,12.471-18.935.182-.424.455-.637.819-.637.182,0,.379.077.592.228.212.152.319.38.319.683l-.091.273c-3.459,9.893-9.225,17.631-17.296,23.214-8.072,5.585-16.873,8.375-26.4,8.375-8.679,0-16.477-2.124-23.396-6.372Z"/>
    <path class="cls-1" d="M618.17,228.244c-5.098,0-9.62-1.259-13.565-3.778-3.945-2.518-7.041-5.826-9.285-9.923-2.246-4.096-3.369-8.48-3.369-13.155,0-4.793,1.396-9.527,4.188-14.201,2.79-4.673,7.282-8.739,13.473-12.198,8.132-4.552,19.147-7.131,33.046-7.738l1.184-.091c.546,0,.819.273.819.819,0,.243-.077.441-.228.592-.153.152-.35.228-.592.228-2.672.123-5.524.364-8.558.729-6.131.85-11.106,2.868-14.93,6.054-3.823,3.186-6.615,7.025-8.375,11.516-1.761,4.492-2.641,9.044-2.641,13.655,0,4.188.637,8.118,1.912,11.789,1.274,3.673,3.063,6.646,5.371,8.922,2.306,2.275,4.976,3.414,8.011,3.414,3.155,0,6.386-1.259,9.695-3.778,3.307-2.518,6.236-5.841,8.784-9.969.182-.242.394-.364.638-.364.302,0,.546.107.728.319.182.214.273.441.273.683l-.182.546c-2.792,4.552-6.418,8.284-10.879,11.197s-9.331,4.491-14.611,4.734h-.91ZM647.301,228.153v-59.355c0-4.733-.546-9.452-1.638-14.156-1.092-4.702-3.232-8.587-6.418-11.652-3.187-3.064-7.816-4.688-13.883-4.87-5.523,0-10.515,1.32-14.976,3.96-4.46,2.64-7.997,6.418-10.606,11.334-.182.304-.425.455-.728.455-.305-.06-.532-.137-.683-.228-.152-.091-.228-.288-.228-.592l.091-.455c2.791-5.219,6.539-9.224,11.243-12.016,4.702-2.791,9.999-4.188,15.886-4.188,7.586.061,14.322,1.215,20.21,3.46,5.886,2.246,10.56,5.781,14.019,10.606,3.46,4.824,5.189,11.183,5.189,19.072v58.626h-17.478Z"/>
    <path class="cls-1" d="M106.855,403.963c-.201-.166-.301-.384-.301-.652.065-.267,16.393-41.787,48.98-124.559.201-.334.434-.502.702-.502s.518.085.753.251c.233.168.351.386.351.652-.068.268-10.439,26.733-31.114,79.393h61.627c.669,0,1.004.301,1.004.903,0,.268-.084.502-.251.702-.167.201-.418.302-.753.302h-62.43l-16.963,43.159c-.268.401-.569.602-.903.602-.268,0-.502-.085-.702-.251ZM209.734,404.214l-55.103-139.714h20.776l55.002,139.714h-20.676Z"/>
    <path class="cls-1" d="M249.481,404.214v-101.173h19.271v101.173h-19.271ZM271.16,325.725c-.335-.267-.502-.568-.502-.903l.1-.401c3.814-7.092,8.966-12.446,15.457-16.06,6.489-3.613,13.114-5.42,19.873-5.42,5.286,0,10.271,1.104,14.956,3.312.334.201.502.469.502.803,0,.268-.085.502-.251.702-.168.201-.386.301-.652.301l-.502-.1c-4.417-2.141-9.102-3.212-14.053-3.212-6.558,0-12.915,1.774-19.07,5.32-6.158,3.547-11.008,8.632-14.553,15.256-.268.335-.569.502-.904.502l-.401-.1Z"/>
    <path class="cls-1" d="M340.215,397.239c-7.628-4.65-13.65-10.823-18.067-18.518-4.417-7.694-6.624-16.06-6.624-25.093,0-10.772,3.144-20.576,9.434-29.408,6.289-8.833,14.82-15.088,25.595-18.769l.301-.1c.334,0,.585.118.753.351.166.235.251.487.251.753,0,.401-.201.702-.602.903-5.688,2.343-10.105,6.742-13.249,13.198-3.147,6.459-4.718,13.969-4.718,22.533,0,5.956.835,12.179,2.509,18.669,3.345,11.778,8.532,21.313,15.558,28.606,7.026,7.294,14.319,10.94,21.88,10.94,4.483,0,9.099-1.254,13.852-3.764,4.75-2.509,8.732-5.235,11.944-8.18.201-.133.401-.201.602-.201.334,0,.602.085.803.251.201.168.301.386.301.652,0,.268-.135.502-.401.703-4.751,4.416-10.071,7.763-15.959,10.037-5.889,2.275-11.978,3.412-18.267,3.412-9.635,0-18.267-2.324-25.895-6.976ZM373.99,311.071c-4.986-3.412-10.055-5.119-15.207-5.119l-2.308.1-1.005.1c-.602,0-.903-.334-.903-1.004,0-.535.267-.836.803-.903,3.614-.803,7.228-1.205,10.84-1.205,12.512,0,23.687,4.283,33.524,12.848l-12.345,9.234c-3.949-5.955-8.415-10.639-13.399-14.052Z"/>
    <path class="cls-1" d="M416.847,289.14c-2.109-2.108-3.162-4.633-3.162-7.578s1.054-5.47,3.162-7.578c2.107-2.108,4.632-3.162,7.578-3.162,3.011,0,5.553,1.054,7.628,3.162,2.074,2.107,3.112,4.634,3.112,7.578s-1.039,5.47-3.112,7.578c-2.075,2.107-4.617,3.162-7.628,3.162-2.945,0-5.47-1.054-7.578-3.162ZM414.789,404.214v-101.173h19.271v101.173h-19.271Z"/>
    <path class="cls-1" d="M454.235,404.214v-101.173h19.271v101.173h-19.271ZM522.887,404.214v-68.452c0-5.621-1.054-10.454-3.161-14.504-2.107-4.047-4.852-7.159-8.23-9.334-3.38-2.173-7.043-3.262-10.991-3.262-4.151,0-8.281,1.34-12.396,4.015-4.116,2.677-7.746,6.892-10.89,12.646-.201.335-.469.502-.803.502-.602-.066-.904-.401-.904-1.004l.102-.401c3.746-7.092,8.865-12.446,15.356-16.06,6.49-3.613,13.148-5.42,19.973-5.42,5.42,0,10.505,1.172,15.257,3.513,4.75,2.342,8.597,5.921,11.543,10.739,2.944,4.818,4.417,10.907,4.417,18.267v68.753h-19.272Z"/>
    <path class="cls-1" d="M563.287,289.14c-2.107-2.108-3.161-4.633-3.161-7.578s1.054-5.47,3.161-7.578c2.109-2.108,4.634-3.162,7.579-3.162,3.011,0,5.553,1.054,7.628,3.162,2.074,2.107,3.111,4.634,3.111,7.578s-1.037,5.47-3.111,7.578c-2.075,2.107-4.617,3.162-7.628,3.162-2.945,0-5.47-1.054-7.579-3.162ZM561.229,404.214v-101.173h19.271v101.173h-19.271Z"/>
    <path class="cls-1" d="M620.347,397.088c-7.628-4.683-13.65-10.873-18.067-18.568-4.417-7.694-6.624-16.06-6.624-25.093,0-10.772,3.162-20.576,9.485-29.408,6.323-8.833,14.871-15.055,25.644-18.669l.301-.1c.334,0,.585.118.753.351.167.235.251.487.251.753,0,.336-.201.603-.602.803-5.688,2.409-10.121,6.825-13.299,13.249-3.18,6.424-4.768,13.886-4.768,22.383,0,4.416.467,8.967,1.405,13.65l60.121-16.159c-3.748-10.371-8.9-18.702-15.456-24.992-6.559-6.289-13.35-9.435-20.376-9.435-.602,0-1.189.034-1.756.1-.569.068-1.089.1-1.555.1-.336,0-.587-.116-.753-.351-.168-.233-.251-.484-.251-.753,0-.401.233-.702.702-.903,3.613-.736,7.159-1.104,10.638-1.104,10.639,0,20.341,3.079,29.107,9.234,8.765,6.158,15.056,14.488,18.869,24.992l-78.891,21.078c.201,1.071.468,2.175.803,3.312,3.345,11.778,8.497,21.313,15.457,28.605,6.958,7.294,14.252,10.941,21.881,10.941,1.069,0,2.14-.066,3.211-.201,8.296-1.471,15.691-5.252,22.182-11.342,6.489-6.088,11.074-13.048,13.75-20.877.201-.467.502-.702.903-.702.201,0,.418.085.652.251.235.168.351.419.351.753l-.1.301c-3.813,10.908-10.172,19.439-19.07,25.595-8.9,6.157-18.602,9.234-29.107,9.234-9.569,0-18.167-2.341-25.795-7.026Z"/>
    <path class="cls-1" d="M722.624,374.956c-5.821-3.445-10.473-8.095-13.951-13.951-3.48-5.855-5.219-12.329-5.219-19.422s1.74-13.55,5.219-19.371c3.478-5.821,8.13-10.471,13.951-13.952,5.821-3.478,12.312-5.219,19.471-5.219,7.092,0,13.551,1.741,19.372,5.219,5.821,3.48,10.471,8.13,13.951,13.952,3.478,5.821,5.219,12.279,5.219,19.371s-1.741,13.567-5.219,19.422c-3.48,5.856-8.13,10.506-13.951,13.951-5.821,3.447-12.28,5.169-19.372,5.169-7.16,0-13.65-1.722-19.471-5.169ZM725.034,441.501c-5.688-2.107-10.306-5.286-13.852-9.533-3.547-4.252-5.32-9.519-5.32-15.809,0-3.279.568-6.825,1.707-10.639.201-.402.467-.603.803-.603.266,0,.517.083.753.251.233.166.351.384.351.653l-.1.301c-1.272,3.88-1.907,7.393-1.907,10.539,0,4.682,1.104,8.682,3.312,11.994,2.209,3.314,5.102,6.04,8.683,8.182,3.579,2.14,7.442,3.713,11.593,4.716,4.148,1.004,8.162,1.505,12.044,1.505,6.356,0,12.496-1.139,18.418-3.412,5.922-2.275,10.772-5.438,14.553-9.487,3.779-4.049,5.671-8.681,5.671-13.9,0-1.138-.1-2.275-.301-3.412-.469-2.61-2.193-4.718-5.169-6.323-2.978-1.606-7.244-2.409-12.797-2.409-6.291,0-14.219,1.237-23.788,3.714-3.347.869-6.459,1.305-9.335,1.305-6.223,0-11.14-1.757-14.754-5.27-3.614-3.513-5.42-7.945-5.42-13.299,0-4.884,1.706-10.204,5.119-15.959.201-.334.434-.502.702-.502s.518.118.753.351c.233.235.351.486.351.753l-.1.402c-2.609,4.215-3.914,7.796-3.914,10.739,0,2.008.617,3.581,1.856,4.718,1.237,1.138,3.127,1.706,5.671,1.706,3.011,0,6.991-.936,11.944-2.81,9.97-3.746,18.533-5.62,25.694-5.62,6.289,0,11.509,1.171,15.658,3.513,4.148,2.343,7.242,5.419,9.284,9.234,2.041,3.814,3.062,7.929,3.062,12.345-.268,7.894-2.46,14.452-6.574,19.673-4.116,5.218-9.453,9.116-16.009,11.692-6.559,2.576-13.417,3.865-20.575,3.865-6.358,0-12.38-1.053-18.067-3.162ZM759.058,370.691c2.61-4.417,3.915-10.271,3.915-17.565,0-5.152-.77-10.672-2.308-16.561-2.544-9.033-6.19-16.411-10.941-22.132-4.753-5.721-9.536-8.582-14.354-8.582-4.282,0-7.728,2.193-10.337,6.575-2.61,4.383-3.915,10.222-3.915,17.514,0,5.153.769,10.707,2.308,16.662,2.543,9.101,6.189,16.495,10.941,22.182,4.75,5.688,9.568,8.532,14.454,8.532,4.215,0,7.628-2.208,10.237-6.624ZM764.98,307.056c-.401-.201-.602-.535-.602-1.004v-.201c.803-2.409,2.174-4.316,4.116-5.721,1.939-1.405,4.081-2.107,6.424-2.107,3.345,0,6.223,1.372,8.631,4.115l.201.502c0,.268-.1.502-.301.702-.201.201-.435.302-.702.302s-.502-.1-.702-.302c-2.007-2.274-4.383-3.412-7.126-3.412-4.551.268-7.462,2.443-8.733,6.525-.067.401-.368.602-.903.602h-.301Z"/>
    <path class="cls-1" d="M824.199,404.214c-5.621,0-10.607-1.388-14.956-4.165-4.35-2.776-7.763-6.424-10.237-10.941-2.477-4.516-3.714-9.35-3.714-14.504,0-5.285,1.538-10.504,4.617-15.658,3.077-5.152,8.029-9.635,14.854-13.449,8.966-5.019,21.111-7.862,36.434-8.532l1.306-.1c.602,0,.903.301.903.903,0,.268-.085.486-.251.652-.168.168-.386.251-.652.251-2.946.135-6.09.401-9.435.803-6.76.938-12.245,3.162-16.461,6.674-4.215,3.513-7.294,7.746-9.233,12.697-1.942,4.953-2.911,9.971-2.911,15.055,0,4.617.702,8.95,2.109,12.998,1.405,4.05,3.378,7.327,5.922,9.837,2.541,2.509,5.485,3.764,8.832,3.764,3.478,0,7.042-1.388,10.69-4.165,3.646-2.776,6.875-6.44,9.685-10.991.201-.267.435-.401.704-.401.334,0,.602.117.803.351.201.235.301.486.301.753l-.201.602c-3.079,5.019-7.076,9.134-11.994,12.345s-10.288,4.951-16.11,5.219h-1.004ZM856.316,404.114v-65.441c0-5.219-.602-10.421-1.806-15.607-1.204-5.185-3.564-9.468-7.076-12.847-3.513-3.378-8.616-5.169-15.307-5.37-6.09,0-11.593,1.455-16.511,4.366-4.917,2.911-8.817,7.076-11.693,12.497-.201.335-.468.502-.803.502-.335-.066-.586-.151-.753-.251-.168-.1-.251-.317-.251-.653l.1-.502c3.077-5.754,7.21-10.17,12.396-13.249,5.186-3.077,11.023-4.617,17.515-4.617,8.364.068,15.791,1.34,22.282,3.814,6.489,2.476,11.643,6.373,15.456,11.693,3.814,5.319,5.721,12.33,5.721,21.027v64.638h-19.271Z"/>
  </g>
  <g>
    <circle class="cls-2" cx="781.754" cy="104.709" r="4.617"/>
    <path class="cls-2" d="M765.959,155.244h0c0,1.752-1.42,3.172-3.172,3.172h0c-10.912,0-19.758-8.846-19.758-19.758v-3.172h3.172c10.912,0,19.758,8.846,19.758,19.758Z"/>
    <path class="cls-2" d="M820.479,135.486v3.172c0,10.912-8.846,19.757-19.757,19.757h0c-1.752,0-3.172-1.42-3.172-3.172h0c0-10.912,8.846-19.758,19.758-19.758h3.172Z"/>
    <path class="cls-2" d="M765.959,193.179h0c0,10.912-8.846,19.758-19.758,19.758h-3.172v-3.172c0-10.912,8.846-19.757,19.757-19.757h0c1.752,0,3.172,1.42,3.172,3.172Z"/>
    <path class="cls-2" d="M841.115,193.572c0,5.346-2.168,10.184-5.671,13.693-3.503,3.503-8.347,5.671-13.693,5.671h-1.272v-3.172c0-10.912-8.846-19.757-19.757-19.757h0c-1.752,0-3.172,1.42-3.172,3.172h0c0,10.912,8.846,19.758,19.758,19.758h3.172v1.272c0,5.352-2.168,10.19-5.671,13.693-3.503,3.503-8.347,5.671-13.693,5.671-10.692,0-19.364-8.666-19.364-19.364,0,5.352-2.168,10.19-5.671,13.693-3.503,3.503-8.341,5.671-13.687,5.671-10.692,0-19.364-8.666-19.364-19.364v-1.272h3.172c10.912,0,19.758-8.846,19.758-19.758h0c0-1.752-1.42-3.172-3.172-3.172h0c-10.912,0-19.758,8.846-19.758,19.758v3.172h-1.272c-5.352,0-10.19-2.168-13.693-5.671-3.503-3.509-5.671-8.347-5.671-13.693,0-10.692,8.666-19.364,19.364-19.364-5.352,0-10.19-2.168-13.693-5.671-3.503-3.503-5.671-8.341-5.671-13.687,0-10.692,8.666-19.364,19.364-19.364h1.272v3.172c0,10.912,8.846,19.757,19.757,19.757h0c1.752,0,3.172-1.42,3.172-3.172h0c0-10.912-8.846-19.758-19.758-19.758h-3.172v-1.272c0-10.697,8.672-19.364,19.364-19.364,5.346,0,10.184,2.168,13.687,5.671,3.503,3.503,5.671,8.347,5.671,13.693,0-10.697,8.672-19.364,19.364-19.364,5.346,0,10.19,2.168,13.693,5.671,3.503,3.503,5.671,8.347,5.671,13.693v1.272h-3.172c-10.912,0-19.758,8.846-19.758,19.758h0c0,1.752,1.42,3.172,3.172,3.172h0c10.912,0,19.757-8.846,19.757-19.757v-3.172h1.272c10.697,0,19.364,8.672,19.364,19.364,0,5.346-2.168,10.184-5.671,13.687-3.503,3.503-8.347,5.671-13.693,5.671,10.697,0,19.364,8.672,19.364,19.364Z"/>
    <path class="cls-2" d="M820.479,209.764v3.172h-3.172c-10.912,0-19.758-8.846-19.758-19.758h0c0-1.752,1.42-3.172,3.172-3.172h0c10.912,0,19.757,8.846,19.757,19.757Z"/>
    <path class="cls-2" d="M820.479,135.486v3.172c0,10.912-8.846,19.757-19.757,19.757h0c-1.752,0-3.172-1.42-3.172-3.172h0c0-10.912,8.846-19.758,19.758-19.758h3.172Z"/>
    <path class="cls-2" d="M820.479,209.764v3.172h-3.172c-10.912,0-19.758-8.846-19.758-19.758h0c0-1.752,1.42-3.172,3.172-3.172h0c10.912,0,19.757,8.846,19.757,19.757Z"/>
    <path class="cls-2" d="M765.959,155.244h0c0,1.752-1.42,3.172-3.172,3.172h0c-10.912,0-19.758-8.846-19.758-19.758v-3.172h3.172c10.912,0,19.758,8.846,19.758,19.758Z"/>
    <path class="cls-2" d="M765.959,193.179h0c0,10.912-8.846,19.758-19.758,19.758h-3.172v-3.172c0-10.912,8.846-19.757,19.757-19.757h0c1.752,0,3.172,1.42,3.172,3.172Z"/>
    <circle class="cls-2" cx="732.662" cy="125.159" r="4.617"/>
    <circle class="cls-2" cx="712.409" cy="174.331" r="4.617"/>
    <circle class="cls-2" cx="732.858" cy="223.423" r="4.617"/>
    <circle class="cls-2" cx="782.031" cy="243.676" r="4.617"/>
    <circle class="cls-2" cx="831.122" cy="223.227" r="4.617"/>
    <circle class="cls-2" cx="851.376" cy="174.054" r="4.617"/>
    <circle class="cls-2" cx="830.927" cy="124.963" r="4.617"/>
    <circle class="cls-2" cx="781.892" cy="174.193" r="13.115"/>
  </g>
  <g>
    <path class="cls-1" d="M694.129,71.793c1.728-1.508,3.601-2.055,5.713-1.878l-.03.69c-1.771-.235-3.712.373-5.235,1.701-2.859,2.491-3.209,6.62-.403,9.838,2.775,3.184,6.956,3.456,9.814.964,1.678-1.461,2.231-3.42,2.287-4.704l-2.73-3.132-4.707,4.102-.447-.514,5.254-4.579,3.372,3.868c-.021,1.946-.869,3.98-2.581,5.472-3.167,2.759-7.804,2.554-10.861-.956-3.06-3.509-2.614-8.114.553-10.873Z"/>
    <path class="cls-1" d="M722.734,62.922l-3.211,1.698,3.057,5.779-.642.34-7.078-13.386,4.615-2.44c2.167-1.146,4.665-.747,5.959,1.702,1.295,2.448.23,4.758-1.937,5.904l7.19,3.593-.821.435-7.132-3.625ZM719.793,55.516l-3.973,2.101,3.385,6.402,3.973-2.101c1.966-1.04,2.53-3.084,1.553-4.929-.975-1.847-2.971-2.513-4.938-1.473Z"/>
    <path class="cls-1" d="M753.67,53.865l-8.155,2.201-.564,4.362-.812.219,2.149-16.267.833-.225,10.041,12.978-.811.219-2.681-3.487ZM745.6,55.338l7.629-2.059-6.306-8.201-1.323,10.26Z"/>
    <path class="cls-1" d="M771.589,39.922l5.24-.236c2.812-.127,4.512,1.772,4.616,4.087.105,2.314-1.461,4.362-4.229,4.487l-4.513.204.294,6.557-.726.033-.683-15.131ZM776.837,40.367l-4.491.204.326,7.213,4.492-.202c2.223-.102,3.582-1.685,3.489-3.772-.095-2.087-1.592-3.543-3.816-3.443Z"/>
    <path class="cls-1" d="M809.831,50.28l-10.161-1.855-1.338,7.327-.715-.13,2.72-14.898.715.13-1.26,6.901,10.163,1.854,1.259-6.901.715.13-2.72,14.898-.715-.13,1.337-7.326Z"/>
    <path class="cls-1" d="M830.799,48.767l.677.266-5.54,14.09-.676-.266,5.539-14.09Z"/>
    <path class="cls-1" d="M844.846,63.689c2.499-3.926,7.041-4.801,10.583-2.545,1.8,1.145,2.861,2.818,3.162,4.84l-.747.116c-.18-1.704-1.191-3.369-2.781-4.383-3.198-2.037-7.257-1.202-9.548,2.397-2.268,3.562-1.333,7.63,1.865,9.667,1.589,1.013,3.527,1.225,5.146.667l.243.719c-2.072.59-3.956.335-5.755-.812-3.543-2.256-4.669-6.742-2.168-10.667Z"/>
    <path class="cls-1" d="M888.758,92.133l2.583,3.677c2.702,3.844,1.435,8.2-1.869,10.523-3.344,2.348-7.816,2.023-10.516-1.821l-2.583-3.676,12.385-8.703ZM879.513,104.121c2.466,3.509,6.363,3.767,9.502,1.562,3.102-2.179,4.236-5.972,1.77-9.481l-2.167-3.083-11.271,7.92,2.166,3.083Z"/>
    <path class="cls-1" d="M904.919,119.362l3.491,8.58-.631.257-3.217-7.907-5.867,2.388,3.158,7.759-.631.257-3.159-7.76-6.266,2.551,3.218,7.906-.632.257-3.491-8.58,14.028-5.708Z"/>
    <path class="cls-1" d="M901.385,148.602c-.959,1.111-1.785,2.867-1.413,5.014.596,3.445,2.715,3.976,4.125,3.732,2.415-.418,2.688-2.7,2.931-5.022.251-2.417.49-4.899,3.084-5.348,2.417-.419,4.186,1.556,4.611,4.016.379,2.192-.151,3.919-1.266,5.194l-.611-.469c1.182-1.288,1.504-2.886,1.207-4.609-.376-2.17-1.971-3.667-3.804-3.351-2.014.349-2.224,2.459-2.461,4.688-.279,2.513-.603,5.173-3.555,5.684-1.678.29-4.233-.373-4.931-4.4-.401-2.326.292-4.312,1.47-5.622l.614.492Z"/>
    <path class="cls-1" d="M916.482,175.222l-.007.726-15.14-.153.007-.726,15.14.152Z"/>
    <path class="cls-1" d="M913.729,202.622c-.464,2.244-1.624,3.812-3.412,4.947l-.393-.567c1.551-.884,2.729-2.541,3.139-4.518.769-3.712-1.452-7.208-5.63-8.074-4.133-.856-7.625,1.457-8.394,5.169-.452,2.177.294,4.07,1.025,5.126l4.068.842,1.265-6.113.667.138-1.413,6.823-5.023-1.04c-1.16-1.562-1.715-3.693-1.254-5.915.851-4.111,4.666-6.752,9.223-5.808s6.986,4.877,6.134,8.99Z"/>
    <path class="cls-1" d="M904.578,226.923l-12.597-6.008.313-.656,13.663,6.516-.314.655-16.871,3.27,12.476,5.95-.313.655-13.664-6.516.313-.655,16.994-3.21Z"/>
    <path class="cls-1" d="M890.114,254.347l-5.757,7.26-.534-.422,5.306-6.691-4.965-3.937-5.207,6.567-.533-.422,5.205-6.567-5.302-4.205-5.305,6.691-.536-.423,5.757-7.261,11.871,9.41Z"/>
    <path class="cls-1" d="M861.884,271.563l2.809-2.306-4.152-5.054.562-.461,9.613,11.705-4.037,3.316c-1.895,1.556-4.422,1.663-6.18-.478-1.758-2.141-1.176-4.617.719-6.173l-7.767-2.086.72-.591,7.713,2.128ZM866.246,278.235l3.475-2.853-4.597-5.599-3.475,2.854c-1.72,1.411-1.862,3.528-.537,5.142,1.326,1.614,3.414,1.868,5.134.456Z"/>
  </g>
</svg>