<?xml version="1.0" encoding="UTF-8"?>
<svg id="Capa_1" xmlns="http://www.w3.org/2000/svg" version="1.1" viewBox="0 0 1000 1000">
  <!-- Generator: Adobe Illustrator 29.1.0, SVG Export Plug-In . SVG Version: 2.1.0 Build 142)  -->
  <defs>
    <style>
      .st0 {
        fill: none;
        stroke: #ee7653;
        stroke-linecap: round;
        stroke-linejoin: round;
        stroke-width: 2.7px;
      }

      .st1 {
        fill: #2f3243;
      }
    </style>
  </defs>
  <path class="st1" d="M95.3,485.8c-.2-.2-.3-.3-.3-.6,0-.2,14.9-37.9,44.4-113,.2-.3.4-.5.6-.5s.5,0,.7.2c.2.2.3.4.3.6,0,.2-9.5,24.2-28.2,72h55.9c.6,0,.9.3.9.8s0,.5-.2.6c-.2.2-.4.3-.7.3h-56.6l-15.4,39.1c-.2.4-.5.5-.8.5s-.5,0-.6-.2ZM188.6,486.1l-50-126.7h18.8l49.9,126.7h-18.8Z"/>
  <path class="st1" d="M224.7,486.1v-91.8h17.5v91.8h-17.5ZM286.9,486.1v-62.1c0-5.1-1-9.5-2.9-13.2-1.9-3.7-4.4-6.5-7.5-8.5-3.1-2-6.4-3-10-3s-7.5,1.2-11.2,3.6c-3.7,2.4-7,6.3-9.9,11.5-.2.3-.4.5-.7.5-.5,0-.8-.4-.8-.9v-.4c3.5-6.4,8.1-11.3,14-14.6,5.9-3.3,11.9-4.9,18.1-4.9s9.5,1.1,13.8,3.2c4.3,2.1,7.8,5.4,10.5,9.7,2.7,4.4,4,9.9,4,16.6v62.4h-17.5Z"/>
  <path class="st1" d="M358.2,486.1c-6.9,0-12.9-1.3-18-3.9-5.1-2.6-9.4-6.1-12.8-10.4-3.4-4.3-6-9.3-7.7-14.7-1.7-5.5-2.5-11.1-2.5-16.8s.8-11.4,2.5-16.8c1.7-5.5,4.3-10.4,7.7-14.7,3.4-4.3,7.7-7.8,12.8-10.4,5.1-2.6,11.1-3.9,18-3.9s8,.9,11.6,2.6c3.5,1.8,6.6,4.1,9.4,7,2.7,2.9,5,6.2,6.9,9.7v.4c0,.5-.2.9-.7.9-.3,0-.6-.2-.8-.5-2.8-5.3-6.4-9.7-11-13.2-4.5-3.5-9.4-5.2-14.5-5.2s-7.6,1.2-10.7,3.7c-3.1,2.5-5.6,5.8-7.6,10.1-2,4.2-3.6,9-4.6,14.2-1,5.3-1.5,10.6-1.5,16.1s.5,10.9,1.5,16.2c1,5.3,2.6,10,4.6,14.2,2,4.2,4.6,7.5,7.6,10,3.1,2.5,6.6,3.7,10.7,3.7s9.9-1.7,14.4-5.1c4.5-3.4,8.2-7.8,11.1-13.2.2-.3.5-.5.8-.5.5,0,.8.4.8.9v.4c-2,3.6-4.3,6.8-7,9.7-2.7,2.9-5.9,5.2-9.4,7-3.5,1.8-7.4,2.6-11.6,2.6ZM405.5,486.1h-17.5v-126.7h17.5v126.7Z"/>
  <path class="st1" d="M422.8,486.1v-91.8h17.5v91.8h-17.5ZM442.4,414.9c-.3-.2-.5-.5-.5-.8v-.4c3.5-6.4,8.2-11.3,14.1-14.6,5.9-3.3,11.9-4.9,18-4.9s9.3,1,13.6,3c.3.2.5.4.5.7s0,.5-.2.6c-.2.2-.4.3-.6.3h-.5c-4-2-8.3-3-12.7-3s-11.7,1.6-17.3,4.8c-5.6,3.2-10,7.8-13.2,13.8-.2.3-.5.5-.8.5h-.4Z"/>
  <path class="st1" d="M505.1,479.6c-6.9-4.2-12.4-9.9-16.4-16.8-4-7-6-14.6-6-22.8s2.9-18.7,8.6-26.7c5.7-8,13.5-13.7,23.3-16.9h.3c.3,0,.5,0,.7.2.2.2.2.4.2.7s-.2.5-.5.7c-5.2,2.2-9.2,6.2-12.1,12-2.9,5.8-4.3,12.6-4.3,20.3s.4,8.1,1.3,12.4l54.5-14.7c-3.4-9.4-8.1-17-14-22.7-5.9-5.7-12.1-8.6-18.5-8.6s-1.1,0-1.6,0c-.5,0-1,0-1.4,0s-.5-.1-.7-.3c-.2-.2-.2-.4-.2-.7,0-.4.2-.6.6-.8,3.3-.7,6.5-1,9.6-1,9.6,0,18.4,2.8,26.4,8.4,7.9,5.6,13.7,13.1,17.1,22.7l-71.6,19.1c.2,1,.4,2,.7,3,3,10.7,7.7,19.3,14,25.9,6.3,6.6,12.9,9.9,19.8,9.9s1.9,0,2.9-.2c7.5-1.3,14.2-4.8,20.1-10.3,5.9-5.5,10-11.8,12.5-18.9.2-.4.5-.6.8-.6s.4,0,.6.2c.2.2.3.4.3.7v.3c-3.5,9.9-9.3,17.6-17.4,23.2-8.1,5.6-16.9,8.4-26.4,8.4s-16.5-2.1-23.4-6.4Z"/>
  <path class="st1" d="M606.7,486.1c-5.1,0-9.6-1.3-13.6-3.8-3.9-2.5-7-5.8-9.3-9.9-2.2-4.1-3.4-8.5-3.4-13.2s1.4-9.5,4.2-14.2c2.8-4.7,7.3-8.7,13.5-12.2,8.1-4.6,19.1-7.1,33-7.7h1.2c.5,0,.8.2.8.7s0,.4-.2.6c-.2.2-.4.2-.6.2-2.7.1-5.5.4-8.6.7-6.1.9-11.1,2.9-14.9,6.1-3.8,3.2-6.6,7-8.4,11.5-1.8,4.5-2.6,9-2.6,13.7s.6,8.1,1.9,11.8c1.3,3.7,3.1,6.6,5.4,8.9,2.3,2.3,5,3.4,8,3.4s6.4-1.3,9.7-3.8c3.3-2.5,6.2-5.8,8.8-10,.2-.2.4-.4.6-.4s.5.1.7.3c.2.2.3.4.3.7l-.2.5c-2.8,4.6-6.4,8.3-10.9,11.2s-9.3,4.5-14.6,4.7h-.9ZM635.8,486v-59.4c0-4.7-.5-9.5-1.6-14.2-1.1-4.7-3.2-8.6-6.4-11.7-3.2-3.1-7.8-4.7-13.9-4.9-5.5,0-10.5,1.3-15,4-4.5,2.6-8,6.4-10.6,11.3-.2.3-.4.5-.7.5-.3,0-.5-.1-.7-.2-.2,0-.2-.3-.2-.6v-.5c2.9-5.2,6.6-9.2,11.3-12,4.7-2.8,10-4.2,15.9-4.2,7.6,0,14.3,1.2,20.2,3.5,5.9,2.2,10.6,5.8,14,10.6,3.5,4.8,5.2,11.2,5.2,19.1v58.6h-17.5Z"/>
  <path class="st1" d="M95.3,661.8c-.2-.2-.3-.4-.3-.7,0-.3,16.4-41.8,49-124.6.2-.3.4-.5.7-.5s.5,0,.8.3c.2.2.4.4.4.7,0,.3-10.4,26.7-31.1,79.4h61.6c.7,0,1,.3,1,.9s0,.5-.3.7c-.2.2-.4.3-.8.3h-62.4l-17,43.2c-.3.4-.6.6-.9.6s-.5,0-.7-.3ZM198.2,662l-55.1-139.7h20.8l55,139.7h-20.7Z"/>
  <path class="st1" d="M238,662v-101.2h19.3v101.2h-19.3ZM259.6,583.6c-.3-.3-.5-.6-.5-.9v-.4c3.9-7.1,9.1-12.4,15.6-16.1,6.5-3.6,13.1-5.4,19.9-5.4s10.3,1.1,15,3.3c.3.2.5.5.5.8s0,.5-.3.7c-.2.2-.4.3-.7.3h-.5c-4.4-2.2-9.1-3.3-14.1-3.3s-12.9,1.8-19.1,5.3c-6.2,3.5-11,8.6-14.6,15.3-.3.3-.6.5-.9.5h-.4Z"/>
  <path class="st1" d="M328.7,655.1c-7.6-4.6-13.6-10.8-18.1-18.5-4.4-7.7-6.6-16.1-6.6-25.1s3.1-20.6,9.4-29.4c6.3-8.8,14.8-15.1,25.6-18.8h.3c.3-.1.6,0,.8.3.2.2.3.5.3.8,0,.4-.2.7-.6.9-5.7,2.3-10.1,6.7-13.2,13.2-3.1,6.5-4.7,14-4.7,22.5s.8,12.2,2.5,18.7c3.3,11.8,8.5,21.3,15.6,28.6,7,7.3,14.3,10.9,21.9,10.9s9.1-1.3,13.9-3.8c4.8-2.5,8.7-5.2,11.9-8.2.2-.1.4-.2.6-.2.3,0,.6,0,.8.3.2.2.3.4.3.7s-.1.5-.4.7c-4.8,4.4-10.1,7.8-16,10-5.9,2.3-12,3.4-18.3,3.4-9.6,0-18.3-2.3-25.9-7ZM362.5,568.9c-5-3.4-10.1-5.1-15.2-5.1h-2.3c0,.1-1,.2-1,.2-.6,0-.9-.3-.9-1s.3-.8.8-.9c3.6-.8,7.2-1.2,10.8-1.2,12.5,0,23.7,4.3,33.5,12.8l-12.3,9.2c-3.9-6-8.4-10.6-13.4-14.1Z"/>
  <path class="st1" d="M405.3,547c-2.1-2.1-3.2-4.6-3.2-7.6s1.1-5.5,3.2-7.6c2.1-2.1,4.6-3.2,7.6-3.2s5.6,1.1,7.6,3.2c2.1,2.1,3.1,4.6,3.1,7.6s-1,5.5-3.1,7.6c-2.1,2.1-4.6,3.2-7.6,3.2s-5.5-1.1-7.6-3.2ZM403.3,662v-101.2h19.3v101.2h-19.3Z"/>
  <path class="st1" d="M442.7,662v-101.2h19.3v101.2h-19.3ZM511.4,662v-68.5c0-5.6-1.1-10.5-3.2-14.5-2.1-4-4.9-7.2-8.2-9.3-3.4-2.2-7-3.3-11-3.3s-8.3,1.3-12.4,4c-4.1,2.7-7.7,6.9-10.9,12.6-.2.3-.5.5-.8.5-.6,0-.9-.4-.9-1v-.4c3.8-7.1,9-12.4,15.5-16.1,6.5-3.6,13.1-5.4,20-5.4s10.5,1.2,15.3,3.5c4.8,2.3,8.6,5.9,11.5,10.7,2.9,4.8,4.4,10.9,4.4,18.3v68.8h-19.3Z"/>
  <path class="st1" d="M551.8,547c-2.1-2.1-3.2-4.6-3.2-7.6s1.1-5.5,3.2-7.6c2.1-2.1,4.6-3.2,7.6-3.2s5.6,1.1,7.6,3.2c2.1,2.1,3.1,4.6,3.1,7.6s-1,5.5-3.1,7.6c-2.1,2.1-4.6,3.2-7.6,3.2s-5.5-1.1-7.6-3.2ZM549.7,662v-101.2h19.3v101.2h-19.3Z"/>
  <path class="st1" d="M608.8,654.9c-7.6-4.7-13.6-10.9-18.1-18.6-4.4-7.7-6.6-16.1-6.6-25.1s3.2-20.6,9.5-29.4c6.3-8.8,14.9-15.1,25.6-18.7h.3c.3-.1.6,0,.8.3.2.2.3.5.3.8s-.2.6-.6.8c-5.7,2.4-10.1,6.8-13.3,13.2-3.2,6.4-4.8,13.9-4.8,22.4s.5,9,1.4,13.6l60.1-16.2c-3.7-10.4-8.9-18.7-15.5-25-6.6-6.3-13.4-9.4-20.4-9.4s-1.2,0-1.8.1c-.6,0-1.1.1-1.6.1s-.6-.1-.8-.4c-.2-.2-.3-.5-.3-.8,0-.4.2-.7.7-.9,3.6-.7,7.2-1.1,10.6-1.1,10.6,0,20.3,3.1,29.1,9.2,8.8,6.2,15.1,14.5,18.9,25l-78.9,21.1c.2,1.1.5,2.2.8,3.3,3.3,11.8,8.5,21.3,15.5,28.6,7,7.3,14.3,10.9,21.9,10.9s2.1,0,3.2-.2c8.3-1.5,15.7-5.3,22.2-11.3,6.5-6.1,11.1-13,13.8-20.9.2-.5.5-.7.9-.7s.4,0,.7.3c.2.2.4.4.4.8v.3c-3.9,10.9-10.3,19.4-19.2,25.6-8.9,6.2-18.6,9.2-29.1,9.2s-18.2-2.3-25.8-7Z"/>
  <path class="st1" d="M711.1,632.8c-5.8-3.4-10.5-8.1-14-14-3.5-5.9-5.2-12.3-5.2-19.4s1.7-13.5,5.2-19.4c3.5-5.8,8.1-10.5,14-14,5.8-3.5,12.3-5.2,19.5-5.2s13.6,1.7,19.4,5.2c5.8,3.5,10.5,8.1,14,14,3.5,5.8,5.2,12.3,5.2,19.4s-1.7,13.6-5.2,19.4c-3.5,5.9-8.1,10.5-14,14-5.8,3.4-12.3,5.2-19.4,5.2s-13.6-1.7-19.5-5.2ZM713.5,699.3c-5.7-2.1-10.3-5.3-13.9-9.5-3.5-4.3-5.3-9.5-5.3-15.8s.6-6.8,1.7-10.6c.2-.4.5-.6.8-.6s.5,0,.8.3c.2.2.4.4.4.7v.3c-1.4,3.9-2,7.4-2,10.5,0,4.7,1.1,8.7,3.3,12,2.2,3.3,5.1,6,8.7,8.2,3.6,2.1,7.4,3.7,11.6,4.7,4.1,1,8.2,1.5,12,1.5,6.4,0,12.5-1.1,18.4-3.4,5.9-2.3,10.8-5.4,14.6-9.5,3.8-4,5.7-8.7,5.7-13.9s-.1-2.3-.3-3.4c-.5-2.6-2.2-4.7-5.2-6.3-3-1.6-7.2-2.4-12.8-2.4s-14.2,1.2-23.8,3.7c-3.3.9-6.5,1.3-9.3,1.3-6.2,0-11.1-1.8-14.8-5.3-3.6-3.5-5.4-7.9-5.4-13.3s1.7-10.2,5.1-16c.2-.3.4-.5.7-.5s.5.1.8.4c.2.2.4.5.4.8v.4c-2.7,4.2-4,7.8-4,10.7s.6,3.6,1.9,4.7c1.2,1.1,3.1,1.7,5.7,1.7s7-.9,11.9-2.8c10-3.7,18.5-5.6,25.7-5.6s11.5,1.2,15.7,3.5c4.1,2.3,7.2,5.4,9.3,9.2,2,3.8,3.1,7.9,3.1,12.3-.3,7.9-2.5,14.5-6.6,19.7-4.1,5.2-9.5,9.1-16,11.7-6.6,2.6-13.4,3.9-20.6,3.9s-12.4-1.1-18.1-3.2ZM747.5,628.5c2.6-4.4,3.9-10.3,3.9-17.6s-.8-10.7-2.3-16.6c-2.5-9-6.2-16.4-10.9-22.1-4.8-5.7-9.5-8.6-14.4-8.6s-7.7,2.2-10.3,6.6c-2.6,4.4-3.9,10.2-3.9,17.5s.8,10.7,2.3,16.7c2.5,9.1,6.2,16.5,10.9,22.2,4.8,5.7,9.6,8.5,14.5,8.5s7.6-2.2,10.2-6.6ZM753.5,564.9c-.4-.2-.6-.5-.6-1v-.2c.8-2.4,2.2-4.3,4.1-5.7,1.9-1.4,4.1-2.1,6.4-2.1,3.3,0,6.2,1.4,8.6,4.1l.2.5c0,.3-.1.5-.3.7-.2.2-.4.3-.7.3s-.5-.1-.7-.3c-2-2.3-4.4-3.4-7.1-3.4-4.6.3-7.5,2.4-8.7,6.5,0,.4-.4.6-.9.6h-.3Z"/>
  <path class="st1" d="M812.7,662c-5.6,0-10.6-1.4-15-4.2-4.4-2.8-7.8-6.4-10.2-10.9-2.5-4.5-3.7-9.4-3.7-14.5s1.5-10.5,4.6-15.7c3.1-5.2,8-9.6,14.9-13.4,9-5,21.1-7.9,36.4-8.5h1.3c.6-.1.9.2.9.8s0,.5-.3.7c-.2.2-.4.3-.7.3-2.9.1-6.1.4-9.4.8-6.8.9-12.2,3.2-16.5,6.7-4.2,3.5-7.3,7.7-9.2,12.7-1.9,5-2.9,10-2.9,15.1s.7,9,2.1,13c1.4,4,3.4,7.3,5.9,9.8,2.5,2.5,5.5,3.8,8.8,3.8s7-1.4,10.7-4.2c3.6-2.8,6.9-6.4,9.7-11,.2-.3.4-.4.7-.4s.6.1.8.4c.2.2.3.5.3.8l-.2.6c-3.1,5-7.1,9.1-12,12.3s-10.3,5-16.1,5.2h-1ZM844.8,661.9v-65.4c0-5.2-.6-10.4-1.8-15.6-1.2-5.2-3.6-9.5-7.1-12.8-3.5-3.4-8.6-5.2-15.3-5.4-6.1,0-11.6,1.5-16.5,4.4-4.9,2.9-8.8,7.1-11.7,12.5-.2.3-.5.5-.8.5-.3,0-.6-.2-.8-.3-.2-.1-.3-.3-.3-.7v-.5c3.2-5.8,7.3-10.2,12.5-13.2,5.2-3.1,11-4.6,17.5-4.6,8.4,0,15.8,1.3,22.3,3.8,6.5,2.5,11.6,6.4,15.5,11.7,3.8,5.3,5.7,12.3,5.7,21v64.6h-19.3Z"/>
  <circle class="st0" cx="770.2" cy="362.5" r="4.6"/>
  <path class="st0" d="M754.4,413.1h0c0,1.8-1.4,3.2-3.2,3.2h0c-10.9,0-19.8-8.8-19.8-19.8v-3.2h3.2c10.9,0,19.8,8.8,19.8,19.8Z"/>
  <path class="st0" d="M809,393.3v3.2c0,10.9-8.8,19.8-19.8,19.8h0c-1.8,0-3.2-1.4-3.2-3.2h0c0-10.9,8.8-19.8,19.8-19.8h3.2Z"/>
  <path class="st0" d="M754.4,451h0c0,10.9-8.8,19.8-19.8,19.8h-3.2v-3.2c0-10.9,8.8-19.8,19.8-19.8h0c1.8,0,3.2,1.4,3.2,3.2Z"/>
  <path class="st0" d="M829.6,451.4c0,5.3-2.2,10.2-5.7,13.7-3.5,3.5-8.3,5.7-13.7,5.7h-1.3v-3.2c0-10.9-8.8-19.8-19.8-19.8h0c-1.8,0-3.2,1.4-3.2,3.2h0c0,10.9,8.8,19.8,19.8,19.8h3.2v1.3c0,5.4-2.2,10.2-5.7,13.7-3.5,3.5-8.3,5.7-13.7,5.7-10.7,0-19.4-8.7-19.4-19.4,0,5.4-2.2,10.2-5.7,13.7-3.5,3.5-8.3,5.7-13.7,5.7-10.7,0-19.4-8.7-19.4-19.4v-1.3h3.2c10.9,0,19.8-8.8,19.8-19.8h0c0-1.8-1.4-3.2-3.2-3.2h0c-10.9,0-19.8,8.8-19.8,19.8v3.2h-1.3c-5.4,0-10.2-2.2-13.7-5.7-3.5-3.5-5.7-8.3-5.7-13.7,0-10.7,8.7-19.4,19.4-19.4-5.4,0-10.2-2.2-13.7-5.7-3.5-3.5-5.7-8.3-5.7-13.7,0-10.7,8.7-19.4,19.4-19.4h1.3v3.2c0,10.9,8.8,19.8,19.8,19.8h0c1.8,0,3.2-1.4,3.2-3.2h0c0-10.9-8.8-19.8-19.8-19.8h-3.2v-1.3c0-10.7,8.7-19.4,19.4-19.4s10.2,2.2,13.7,5.7c3.5,3.5,5.7,8.3,5.7,13.7,0-10.7,8.7-19.4,19.4-19.4s10.2,2.2,13.7,5.7c3.5,3.5,5.7,8.3,5.7,13.7v1.3h-3.2c-10.9,0-19.8,8.8-19.8,19.8h0c0,1.8,1.4,3.2,3.2,3.2h0c10.9,0,19.8-8.8,19.8-19.8v-3.2h1.3c10.7,0,19.4,8.7,19.4,19.4s-2.2,10.2-5.7,13.7c-3.5,3.5-8.3,5.7-13.7,5.7,10.7,0,19.4,8.7,19.4,19.4Z"/>
  <path class="st0" d="M809,467.6v3.2h-3.2c-10.9,0-19.8-8.8-19.8-19.8h0c0-1.8,1.4-3.2,3.2-3.2h0c10.9,0,19.8,8.8,19.8,19.8Z"/>
  <path class="st0" d="M809,393.3v3.2c0,10.9-8.8,19.8-19.8,19.8h0c-1.8,0-3.2-1.4-3.2-3.2h0c0-10.9,8.8-19.8,19.8-19.8h3.2Z"/>
  <path class="st0" d="M809,467.6v3.2h-3.2c-10.9,0-19.8-8.8-19.8-19.8h0c0-1.8,1.4-3.2,3.2-3.2h0c10.9,0,19.8,8.8,19.8,19.8Z"/>
  <path class="st0" d="M754.4,413.1h0c0,1.8-1.4,3.2-3.2,3.2h0c-10.9,0-19.8-8.8-19.8-19.8v-3.2h3.2c10.9,0,19.8,8.8,19.8,19.8Z"/>
  <path class="st0" d="M754.4,451h0c0,10.9-8.8,19.8-19.8,19.8h-3.2v-3.2c0-10.9,8.8-19.8,19.8-19.8h0c1.8,0,3.2,1.4,3.2,3.2Z"/>
  <circle class="st0" cx="721.1" cy="383" r="4.6"/>
  <circle class="st0" cx="700.9" cy="432.2" r="4.6"/>
  <circle class="st0" cx="721.3" cy="481.3" r="4.6"/>
  <circle class="st0" cx="770.5" cy="501.5" r="4.6"/>
  <circle class="st0" cx="819.6" cy="481.1" r="4.6"/>
  <circle class="st0" cx="839.9" cy="431.9" r="4.6"/>
  <circle class="st0" cx="819.4" cy="382.8" r="4.6"/>
  <circle class="st0" cx="770.4" cy="432" r="13.1"/>
  <path class="st1" d="M682.6,329.6c1.7-1.5,3.6-2.1,5.7-1.9v.7c-1.8-.2-3.7.4-5.3,1.7-2.9,2.5-3.2,6.6-.4,9.8,2.8,3.2,7,3.5,9.8,1,1.7-1.5,2.2-3.4,2.3-4.7l-2.7-3.1-4.7,4.1-.4-.5,5.3-4.6,3.4,3.9c0,1.9-.9,4-2.6,5.5-3.2,2.8-7.8,2.6-10.9-1-3.1-3.5-2.6-8.1.6-10.9Z"/>
  <path class="st1" d="M711.2,320.8l-3.2,1.7,3.1,5.8-.6.3-7.1-13.4,4.6-2.4c2.2-1.1,4.7-.7,6,1.7,1.3,2.4.2,4.8-1.9,5.9l7.2,3.6-.8.4-7.1-3.6ZM708.3,313.3l-4,2.1,3.4,6.4,4-2.1c2-1,2.5-3.1,1.6-4.9-1-1.8-3-2.5-4.9-1.5Z"/>
  <path class="st1" d="M742.2,311.7l-8.2,2.2-.6,4.4-.8.2,2.1-16.3.8-.2,10,13-.8.2-2.7-3.5ZM734.1,313.2l7.6-2.1-6.3-8.2-1.3,10.3Z"/>
  <path class="st1" d="M760.1,297.8l5.2-.2c2.8-.1,4.5,1.8,4.6,4.1.1,2.3-1.5,4.4-4.2,4.5l-4.5.2.3,6.6h-.7s-.7-15.1-.7-15.1ZM765.3,298.2l-4.5.2.3,7.2,4.5-.2c2.2-.1,3.6-1.7,3.5-3.8,0-2.1-1.6-3.5-3.8-3.4Z"/>
  <path class="st1" d="M798.3,308.1l-10.2-1.9-1.3,7.3h-.7c0-.1,2.7-15,2.7-15h.7c0,.1-1.3,7-1.3,7l10.2,1.9,1.3-6.9h.7c0,.1-2.7,15-2.7,15h-.7c0-.1,1.3-7.5,1.3-7.5Z"/>
  <path class="st1" d="M819.3,306.6l.7.3-5.5,14.1-.7-.3,5.5-14.1Z"/>
  <path class="st1" d="M833.3,321.5c2.5-3.9,7-4.8,10.6-2.5,1.8,1.1,2.9,2.8,3.2,4.8h-.7c-.2-1.6-1.2-3.3-2.8-4.3-3.2-2-7.3-1.2-9.5,2.4-2.3,3.6-1.3,7.6,1.9,9.7,1.6,1,3.5,1.2,5.1.7l.2.7c-2.1.6-4,.3-5.8-.8-3.5-2.3-4.7-6.7-2.2-10.7Z"/>
  <path class="st1" d="M877.2,350l2.6,3.7c2.7,3.8,1.4,8.2-1.9,10.5-3.3,2.3-7.8,2-10.5-1.8l-2.6-3.7,12.4-8.7ZM868,361.9c2.5,3.5,6.4,3.8,9.5,1.6,3.1-2.2,4.2-6,1.8-9.5l-2.2-3.1-11.3,7.9,2.2,3.1Z"/>
  <path class="st1" d="M893.4,377.2l3.5,8.6-.6.3-3.2-7.9-5.9,2.4,3.2,7.8-.6.3-3.2-7.8-6.3,2.6,3.2,7.9-.6.3-3.5-8.6,14-5.7Z"/>
  <path class="st1" d="M889.9,406.4c-1,1.1-1.8,2.9-1.4,5,.6,3.4,2.7,4,4.1,3.7,2.4-.4,2.7-2.7,2.9-5,.3-2.4.5-4.9,3.1-5.3,2.4-.4,4.2,1.6,4.6,4,.4,2.2-.2,3.9-1.3,5.2l-.6-.5c1.2-1.3,1.5-2.9,1.2-4.6-.4-2.2-2-3.7-3.8-3.4-2,.3-2.2,2.5-2.5,4.7-.3,2.5-.6,5.2-3.6,5.7-1.7.3-4.2-.4-4.9-4.4-.4-2.3.3-4.3,1.5-5.6l.6.5Z"/>
  <path class="st1" d="M905,433.1v.7s-15.1-.2-15.1-.2v-.7s15.1.2,15.1.2Z"/>
  <path class="st1" d="M902.2,460.5c-.5,2.2-1.6,3.8-3.4,4.9l-.4-.6c1.6-.9,2.7-2.5,3.1-4.5.8-3.7-1.5-7.2-5.6-8.1-4.1-.9-7.6,1.5-8.4,5.2-.5,2.2.3,4.1,1,5.1l4.1.8,1.3-6.1h.7c0,.1-1.4,7-1.4,7l-5-1c-1.2-1.6-1.7-3.7-1.3-5.9.9-4.1,4.7-6.8,9.2-5.8s7,4.9,6.1,9Z"/>
  <path class="st1" d="M893.1,484.8l-12.6-6,.3-.7,13.7,6.5-.3.7-16.9,3.3,12.5,5.9-.3.7-13.7-6.5.3-.7,17-3.2Z"/>
  <path class="st1" d="M878.6,512.2l-5.8,7.3-.5-.4,5.3-6.7-5-3.9-5.2,6.6-.5-.4,5.2-6.6-5.3-4.2-5.3,6.7-.5-.4,5.8-7.3,11.9,9.4Z"/>
  <path class="st1" d="M850.4,529.4l2.8-2.3-4.2-5.1.6-.5,9.6,11.7-4,3.3c-1.9,1.6-4.4,1.7-6.2-.5-1.8-2.1-1.2-4.6.7-6.2l-7.8-2.1.7-.6,7.7,2.1ZM854.7,536.1l3.5-2.9-4.6-5.6-3.5,2.9c-1.7,1.4-1.9,3.5-.5,5.1,1.3,1.6,3.4,1.9,5.1.5Z"/>
</svg>