<?xml version="1.0" encoding="UTF-8"?>
<svg id="Capa_2" data-name="Capa 2" xmlns="http://www.w3.org/2000/svg" viewBox="0 0 48.761 48.009">
  <defs>
    <style>
      .cls-1 {
        fill: #ee7653;
      }

      .cls-2 {
        fill: #fbc57d;
      }
    </style>
  </defs>
  <g id="Capa_1-2" data-name="Capa 1">
    <g>
      <path class="cls-1" d="M42.97,31.18c.895,1.621,1.401,3.489,1.401,5.473,0,6.271-5.078,11.355-11.349,11.355-3.567,0-6.751-1.647-8.832-4.222-2.082,2.575-5.266,4.222-8.833,4.222-6.271,0-11.355-5.084-11.355-11.355,0-2.056.545-3.982,1.505-5.642-3.301-1.984-5.506-5.597-5.506-9.728,0-6.271,5.084-11.355,11.355-11.355.428,0,.856.026,1.271.071C13.294,4.364,18.087,0,23.897,0c5.862,0,10.687,4.442,11.29,10.149.72-.149,1.459-.221,2.218-.221,6.271,0,11.355,5.084,11.355,11.355,0,4.248-2.335,7.951-5.791,9.896Z"/>
      <g>
        <path class="cls-2" d="M24.707,36.657c-6.212,0-11.265-5.053-11.265-11.265s5.053-11.265,11.265-11.265,11.265,5.053,11.265,11.265-5.053,11.265-11.265,11.265ZM24.707,15.92c-5.223,0-9.472,4.249-9.472,9.472s4.249,9.472,9.472,9.472,9.472-4.249,9.472-9.472-4.249-9.472-9.472-9.472Z"/>
        <path class="cls-2" d="M23.901,24.8l6.625-.791c.393-.047.75.234.797.627.047.393-.234.75-.627.797l-5.309.634.315,6.839c.016.396-.292.729-.688.745-.396.016-.729-.292-.745-.688l-.368-8.164Z"/>
        <circle class="cls-2" cx="24.707" cy="25.392" r="1.069"/>
      </g>
    </g>
  </g>
</svg>